<svg width="158" height="158" viewBox="0 0 158 158" fill="none" xmlns="http://www.w3.org/2000/svg">
<rect x="12" y="12" width="134" height="134" rx="67" fill="#FEE4E2"/>
<rect x="12" y="12" width="134" height="134" rx="67" stroke="#FEF3F2" stroke-width="22.3333"/>
<path d="M79.9987 106.917C95.4166 106.917 107.915 94.4181 107.915 79.0002C107.915 63.5822 95.4166 51.0835 79.9987 51.0835C64.5807 51.0835 52.082 63.5822 52.082 79.0002C52.082 94.4181 64.5807 106.917 79.9987 106.917Z" stroke="#D74120" stroke-width="4.1875"/>
<path d="M80 65.042V81.792" stroke="#D74120" stroke-width="4.1875" stroke-linecap="round"/>
<path d="M79.9987 92.9583C81.5405 92.9583 82.7904 91.7085 82.7904 90.1667C82.7904 88.6249 81.5405 87.375 79.9987 87.375C78.4569 87.375 77.207 88.6249 77.207 90.1667C77.207 91.7085 78.4569 92.9583 79.9987 92.9583Z" fill="#D74120"/>
</svg>
