<svg width="16" height="16" viewBox="0 0 16 16" fill="none" xmlns="http://www.w3.org/2000/svg">
<path d="M10.4219 4.14191C10.4219 4.63919 10.6194 5.1161 10.9711 5.46773C11.3227 5.81936 11.7996 6.01691 12.2969 6.01691C12.7941 6.01691 13.2711 5.81936 13.6227 5.46773C13.9743 5.1161 14.1719 4.63919 14.1719 4.14191C14.1719 3.64463 13.9743 3.16771 13.6227 2.81608C13.2711 2.46445 12.7941 2.26691 12.2969 2.26691C11.7996 2.26691 11.3227 2.46445 10.9711 2.81608C10.6194 3.16771 10.4219 3.64463 10.4219 4.14191Z" stroke="#313131" stroke-linecap="round" stroke-linejoin="round"/>
<path d="M6.20312 14.0938C6.28251 14.3642 6.44735 14.6016 6.67297 14.7705C6.89856 14.9394 7.17287 15.0307 7.45469 15.0307C7.7365 15.0307 8.01081 14.9394 8.23637 14.7705C8.462 14.6016 8.62687 14.3642 8.70625 14.0938" stroke="#313131" stroke-linecap="round" stroke-linejoin="round"/>
<path d="M7.45312 2.375V0.96875" stroke="#313131" stroke-linecap="round" stroke-linejoin="round"/>
<path d="M12.155 7.97561C12.2731 11.5731 13.0781 12.2187 13.0781 12.2187H1.82812C1.82812 12.2187 2.76563 11.0212 2.76563 7.06248C2.76633 6.3281 2.93939 5.60417 3.2709 4.9489C3.60241 4.29363 4.0831 3.72532 4.67429 3.2897C5.26549 2.85409 5.95069 2.56333 6.67475 2.44082C7.39881 2.3183 8.1415 2.36746 8.84313 2.58433" stroke="#313131" stroke-linecap="round" stroke-linejoin="round"/>
</svg>
