<svg width="14" height="14" viewBox="0 0 14 14" fill="none" xmlns="http://www.w3.org/2000/svg">
<g clip-path="url(#clip0_2122_4285)">
<path d="M10.8887 3.11133L3.11133 10.8885" stroke="#313131" stroke-width="0.875" stroke-linecap="round"/>
<path d="M3.77328 2.06877C4.29205 1.55006 4.55138 1.29067 4.88125 1.15407C5.21107 1.01746 5.57786 1.01746 6.31144 1.01746H7.68874C8.42238 1.01746 8.78922 1.01746 9.11904 1.15407C9.44886 1.29067 9.70819 1.55006 10.2269 2.06877L11.9313 3.77316C12.4501 4.29192 12.7094 4.55131 12.846 4.88113C12.9827 5.21095 12.9827 5.57774 12.9827 6.31132V7.68862C12.9827 8.42225 12.9827 8.7891 12.846 9.11892C12.7094 9.44874 12.4501 9.70807 11.9313 10.2268L10.227 11.9312C9.70819 12.4499 9.44886 12.7093 9.11904 12.8459C8.78922 12.9825 8.42238 12.9825 7.68874 12.9825H6.31144C5.57786 12.9825 5.21107 12.9825 4.88125 12.8459C4.55138 12.7093 4.29205 12.4499 3.77328 11.9312L2.06889 10.2268C1.55018 9.70807 1.2908 9.44874 1.15419 9.11892C1.01758 8.7891 1.01758 8.42225 1.01758 7.68862V6.31132C1.01758 5.57774 1.01758 5.21095 1.15419 4.88113C1.2908 4.55125 1.55018 4.29192 2.06889 3.77316" stroke="#313131" stroke-width="0.875" stroke-linecap="round"/>
</g>
<defs>
<clipPath id="clip0_2122_4285">
<rect width="14" height="14" fill="white"/>
</clipPath>
</defs>
</svg>
