<svg width="14" height="14" viewBox="0 0 14 14" fill="none" xmlns="http://www.w3.org/2000/svg">
<g clip-path="url(#clip0_2120_5239)">
<path d="M4.00781 2.06441V1.16699" stroke="#313131" stroke-width="0.875" stroke-linecap="round"/>
<path d="M9.99219 2.06441V1.16699" stroke="#313131" stroke-width="0.875" stroke-linecap="round"/>
<path d="M8.79492 9.54277C8.79492 10.2336 9.54272 10.6653 10.141 10.3199C10.4186 10.1596 10.5897 9.86335 10.5897 9.54277C10.5897 8.85196 9.84186 8.4202 9.24358 8.76561C8.96593 8.9259 8.79492 9.2222 8.79492 9.54277Z" stroke="#313131" stroke-width="0.875"/>
<path d="M12.6836 5.05566H6.25232M1.01758 5.05566H3.33578" stroke="#313131" stroke-width="0.875" stroke-linecap="round"/>
<path d="M8.19663 12.833H5.80361C3.54742 12.833 2.41938 12.833 1.71845 12.1321C1.01758 11.4313 1.01758 10.3031 1.01758 8.04699V6.85048C1.01758 4.5943 1.01758 3.46626 1.71845 2.76533C2.41938 2.06445 3.54742 2.06445 5.80361 2.06445H8.19663C10.4528 2.06445 11.5809 2.06445 12.2817 2.76533C12.9827 3.46626 12.9827 4.5943 12.9827 6.85048V8.04699C12.9827 10.3031 12.9827 11.4313 12.2818 12.1321C11.891 12.5229 11.3675 12.6958 10.5896 12.7723" stroke="#313131" stroke-width="0.875" stroke-linecap="round"/>
</g>
<defs>
<clipPath id="clip0_2120_5239">
<rect width="14" height="14" fill="white"/>
</clipPath>
</defs>
</svg>
