<svg width="14" height="15" viewBox="0 0 14 15" fill="none" xmlns="http://www.w3.org/2000/svg">
<path d="M12.383 6.30355C12.3757 5.00232 12.318 4.29762 11.8583 3.83797C11.3326 3.31226 10.4866 3.31226 8.79447 3.31226H6.99968C5.30754 3.31226 4.46147 3.31226 3.93581 3.83797C3.41016 4.36362 3.41016 5.20969 3.41016 6.90178V9.89308C3.41016 11.5852 3.41016 12.4312 3.93581 12.9569C4.46147 13.4826 5.30754 13.4826 6.99968 13.4826H8.79447C10.4866 13.4826 11.3326 13.4826 11.8583 12.9569C12.384 12.4312 12.384 11.5852 12.384 9.89308V9.29485" stroke="#313131" stroke-width="0.875" stroke-linecap="round"/>
<path d="M1.61523 6.30361V9.89313C1.61523 10.8844 2.41881 11.6879 3.41002 11.6879M10.5891 3.31231C10.5891 2.3211 9.78555 1.51758 8.79434 1.51758H6.40127C4.14513 1.51758 3.01704 1.51758 2.31616 2.21845C1.92537 2.60925 1.75245 3.13277 1.67594 3.91059" stroke="#313131" stroke-width="0.875" stroke-linecap="round"/>
</svg>
