<svg width="17" height="16" viewBox="0 0 17 16" fill="none" xmlns="http://www.w3.org/2000/svg">
<path d="M5.13867 2.35912V1.3335" stroke="#9D9D9D" stroke-linecap="round"/>
<path d="M11.9746 2.35912V1.3335" stroke="#9D9D9D" stroke-linecap="round"/>
<path d="M10.6074 10.906C10.6074 11.6955 11.462 12.189 12.1458 11.7942C12.4631 11.611 12.6585 11.2724 12.6585 10.906C12.6585 10.1165 11.8039 9.62309 11.1202 10.0178C10.8029 10.201 10.6074 10.5397 10.6074 10.906Z" stroke="#9D9D9D"/>
<path d="M15.0513 5.77783H7.70131M1.71875 5.77783H4.36813" stroke="#9D9D9D" stroke-linecap="round"/>
<path d="M9.92337 14.6663H7.1885C4.61 14.6663 3.32081 14.6663 2.51975 13.8653C1.71875 13.0643 1.71875 11.775 1.71875 9.19656V7.82912C1.71875 5.25062 1.71875 3.96144 2.51975 3.16037C3.32081 2.35938 4.61 2.35938 7.1885 2.35938H9.92337C12.5018 2.35938 13.7911 2.35938 14.5921 3.16037C15.3931 3.96144 15.3931 5.25062 15.3931 7.82912V9.19656C15.3931 11.775 15.3931 13.0643 14.5921 13.8653C14.1455 14.3119 13.5472 14.5095 12.6582 14.5969" stroke="#9D9D9D" stroke-linecap="round"/>
</svg>
