<svg width="14" height="14" viewBox="0 0 14 14" fill="none" xmlns="http://www.w3.org/2000/svg">
<g clip-path="url(#clip0_2082_7861)">
<path d="M12.6069 3.0423H1.39331" stroke="#313131" stroke-width="0.875" stroke-linecap="round"/>
<path d="M5.35107 6.34033L5.68084 9.63843" stroke="#313131" stroke-width="0.875" stroke-linecap="round"/>
<path d="M8.64891 6.34033L8.31909 9.63843" stroke="#313131" stroke-width="0.875" stroke-linecap="round"/>
<path d="M3.37207 3.04234C3.40893 3.04234 3.42736 3.04234 3.44404 3.04191C3.9872 3.02812 4.46637 2.68277 4.65121 2.17183C4.6569 2.15613 4.6627 2.13863 4.6744 2.10369L4.73844 1.91157C4.79307 1.74756 4.82041 1.66553 4.85667 1.59591C5.00132 1.31816 5.26896 1.12527 5.57822 1.07584C5.65577 1.06348 5.74217 1.06348 5.91509 1.06348H8.08482C8.25769 1.06348 8.3442 1.06348 8.4217 1.07589C8.73095 1.12527 8.99859 1.31816 9.14324 1.59591C9.1795 1.66553 9.20684 1.74756 9.26148 1.91157L9.32557 2.10369C9.33716 2.13863 9.34302 2.15613 9.3487 2.17183C9.53355 2.68277 10.0127 3.02812 10.5559 3.04191C10.5726 3.04234 10.591 3.04234 10.6278 3.04234" stroke="#313131" stroke-width="0.875"/>
<path d="M11.2041 9.24206C11.0873 10.9933 11.0289 11.8689 10.4583 12.4027C9.88779 12.9365 9.01022 12.9365 7.25514 12.9365H6.74496C4.98987 12.9365 4.1123 12.9365 3.54175 12.4027C2.97119 11.8689 2.91279 10.9933 2.79603 9.24206L2.49268 4.69135M11.5074 4.69135L11.3755 6.67016" stroke="#313131" stroke-width="0.875" stroke-linecap="round"/>
</g>
<defs>
<clipPath id="clip0_2082_7861">
<rect width="14" height="14" fill="white"/>
</clipPath>
</defs>
</svg>
