<svg width="14" height="14" viewBox="0 0 14 14" fill="none" xmlns="http://www.w3.org/2000/svg">
<g clip-path="url(#clip0_2082_7873)">
<path d="M7 9.99131V6.40173" stroke="#313131" stroke-width="0.875" stroke-linecap="round"/>
<path d="M6.40161 4.60697C6.40161 4.14645 6.9002 3.85857 7.29903 4.08886C7.48415 4.19572 7.59817 4.39325 7.59817 4.60697C7.59817 5.06749 7.09959 5.35532 6.70075 5.12508C6.51569 5.01822 6.40161 4.82069 6.40161 4.60697Z" fill="#313131"/>
<path d="M12.9827 7C12.9827 9.82018 12.9827 11.2303 12.1065 12.1064C11.2305 12.9825 9.8203 12.9825 7.00012 12.9825C4.17988 12.9825 2.76982 12.9825 1.89367 12.1064C1.01758 11.2303 1.01758 9.82018 1.01758 7C1.01758 4.17976 1.01758 2.7697 1.89367 1.89355C2.76982 1.01746 4.17988 1.01746 7.00012 1.01746C9.8203 1.01746 11.2304 1.01746 12.1065 1.89355C12.6891 2.47614 12.8843 3.29475 12.9497 4.60698" stroke="#313131" stroke-width="0.875" stroke-linecap="round"/>
</g>
<defs>
<clipPath id="clip0_2082_7873">
<rect width="14" height="14" fill="white"/>
</clipPath>
</defs>
</svg>
