<svg width="20" height="20" viewBox="0 0 20 20" fill="none" xmlns="http://www.w3.org/2000/svg">
<g clip-path="url(#clip0_2339_9396)">
<path d="M10.0002 5.72668V11.7093M10.0002 11.7093L12.5642 9.14528M10.0002 11.7093L7.43622 9.14528" stroke="#7F6145" stroke-width="1.25" stroke-linecap="round" stroke-linejoin="round"/>
<path d="M13.4185 14.2732H6.58136" stroke="#7F6145" stroke-width="1.25" stroke-linecap="round"/>
<path d="M18.5466 9.99985C18.5466 14.0287 18.5466 16.0431 17.295 17.2947C16.0435 18.5463 14.029 18.5463 10.0002 18.5463C5.97125 18.5463 3.95688 18.5463 2.70524 17.2947C1.45367 16.0432 1.45367 14.0287 1.45367 9.99985C1.45367 5.97095 1.45367 3.95657 2.70524 2.70493C3.95688 1.45337 5.97125 1.45337 10.0002 1.45337C14.029 1.45337 16.0434 1.45337 17.295 2.70493C18.1273 3.5372 18.4062 4.70665 18.4996 6.58126" stroke="#7F6145" stroke-width="1.25" stroke-linecap="round"/>
</g>
<defs>
<clipPath id="clip0_2339_9396">
<rect width="20" height="20" fill="white"/>
</clipPath>
</defs>
</svg>
