<svg width="14" height="14" viewBox="0 0 14 14" fill="none" xmlns="http://www.w3.org/2000/svg">
<path d="M1.53125 7C1.53125 9.57797 1.53125 10.867 2.33213 11.6679C3.13301 12.4688 4.422 12.4688 7 12.4688C9.57797 12.4688 10.867 12.4688 11.6679 11.6679C12.4688 10.867 12.4688 9.57797 12.4688 7V6.17969M7.82031 1.53125H7C4.422 1.53125 3.13301 1.53125 2.33213 2.33213C1.79962 2.86465 1.62118 3.61296 1.56138 4.8125" stroke="#465045" stroke-width="0.875" stroke-linecap="round"/>
<path d="M9.54406 2.32699L9.89893 1.97216C10.4868 1.38428 11.44 1.38428 12.0279 1.97216C12.6157 2.56005 12.6157 3.51321 12.0279 4.10109L11.673 4.45591M9.54406 2.32699C9.54406 2.32699 9.58841 3.08098 10.2537 3.74627C10.919 4.41156 11.673 4.45591 11.673 4.45591M9.54406 2.32699L6.28206 5.58903C6.06113 5.80997 5.95066 5.92042 5.85563 6.04226C5.74355 6.18592 5.64746 6.3414 5.56907 6.5059C5.50261 6.64535 5.4532 6.79356 5.35439 7.09002L5.03804 8.03906M11.673 4.45591L10.042 6.08694M5.03804 8.03906L4.83334 8.65315C4.78472 8.79906 4.82268 8.95984 4.93141 9.06861C5.04014 9.17733 5.20097 9.21528 5.34685 9.16667L5.96094 8.96197M5.03804 8.03906L5.96094 8.96197M8.41099 7.71794C8.19006 7.93888 8.07959 8.04934 7.95774 8.14439C7.81408 8.25645 7.6586 8.35253 7.4941 8.43095C7.35465 8.4974 7.20645 8.54678 6.90999 8.6456L5.96094 8.96197" stroke="#465045" stroke-width="0.875" stroke-linecap="round"/>
</svg>
