<svg width="40" height="40" viewBox="0 0 40 40" fill="none" xmlns="http://www.w3.org/2000/svg">
<rect x="0.4" y="0.4" width="39.2" height="39.2" rx="19.6" stroke="white" stroke-opacity="0.2" stroke-width="0.8"/>
<path d="M26.4925 23.5525L25.5533 24.4917C25.4367 24.6083 25.2908 24.6608 25.1392 24.6608C24.9875 24.6608 24.8417 24.6025 24.725 24.4917C24.6709 24.4377 24.628 24.3736 24.5987 24.303C24.5695 24.2325 24.5544 24.1568 24.5544 24.0804C24.5544 24.004 24.5695 23.9284 24.5987 23.8578C24.628 23.7872 24.6709 23.7231 24.725 23.6692L25.4775 22.9167H21.1608C20.84 22.9167 20.5775 22.6542 20.5775 22.3333C20.5775 22.0125 20.84 21.75 21.1608 21.75H25.4775L24.725 20.9975C24.671 20.9435 24.6282 20.8794 24.5989 20.8088C24.5697 20.7383 24.5547 20.6626 24.5547 20.5862C24.5547 20.5099 24.5697 20.4342 24.5989 20.3637C24.6282 20.2931 24.671 20.229 24.725 20.175C24.779 20.121 24.8431 20.0782 24.9137 20.0489C24.9842 20.0197 25.0599 20.0047 25.1362 20.0047C25.2126 20.0047 25.2883 20.0197 25.3588 20.0489C25.4294 20.0782 25.4935 20.121 25.5475 20.175L26.4867 21.1142C26.8089 21.4393 26.9897 21.8785 26.9897 22.3362C26.9897 22.794 26.8089 23.2332 26.4867 23.5583L26.4925 23.5525ZM20.5833 17.6667H24.3983C24.1942 17.1358 23.885 16.6458 23.4708 16.2317L21.4408 14.1958C21.0329 13.7894 20.5439 13.4734 20.0058 13.2683V17.0833C20.0058 17.4042 20.2683 17.6667 20.5892 17.6667H20.5833ZM23.3892 24.0833H21.1667C20.2042 24.0833 19.4167 23.2958 19.4167 22.3333C19.4167 21.3708 20.2042 20.5833 21.1667 20.5833H23.3892C23.3892 20.1342 23.5583 19.685 23.9025 19.3467C24.1183 19.1308 24.3808 18.9792 24.655 18.9033V18.8333H20.5833C19.6208 18.8333 18.8333 18.0458 18.8333 17.0833V13.0117C18.74 13.0058 18.6467 13 18.5475 13H15.9167C14.3067 13 13 14.3067 13 15.9167V24.0833C13 25.6933 14.3067 27 15.9167 27H21.75C22.8058 27 23.7333 26.4342 24.2467 25.5883C23.9854 25.4334 23.769 25.2132 23.6187 24.9494C23.4683 24.6855 23.3892 24.387 23.3892 24.0833Z" fill="white"/>
</svg>
