<svg width="20" height="20" viewBox="0 0 20 20" fill="none" xmlns="http://www.w3.org/2000/svg">
<g clip-path="url(#clip0_2339_9387)">
<path d="M11.7093 6.58136C11.7065 7.89715 13.1291 8.72261 14.2701 8.06715C14.8019 7.7616 15.1292 7.19465 15.1279 6.58136C15.1307 5.2655 13.708 4.44011 12.5671 5.09558C12.0353 5.40105 11.708 5.96808 11.7093 6.58136Z" stroke="#313131" stroke-width="1.25"/>
<path d="M1.45349 10.4273L2.95044 9.11743C3.72927 8.43603 4.9031 8.47509 5.63482 9.20681L9.30107 12.8731C9.88833 13.4604 10.8129 13.5405 11.4926 13.0628L11.7474 12.8838C12.7253 12.1965 14.0484 12.2761 14.9369 13.0757L17.6919 15.5552" stroke="#313131" stroke-width="1.25" stroke-linecap="round"/>
<path d="M18.5465 9.99985C18.5465 14.0287 18.5465 16.0431 17.2948 17.2947C16.0433 18.5463 14.0288 18.5463 9.99998 18.5463C5.97107 18.5463 3.95669 18.5463 2.70505 17.2947C1.45349 16.0432 1.45349 14.0287 1.45349 9.99985C1.45349 5.97095 1.45349 3.95657 2.70505 2.70493C3.95669 1.45337 5.97107 1.45337 9.99998 1.45337C14.0288 1.45337 16.0433 1.45337 17.2948 2.70493C18.1271 3.5372 18.406 4.70665 18.4994 6.58126" stroke="#313131" stroke-width="1.25" stroke-linecap="round"/>
</g>
<defs>
<clipPath id="clip0_2339_9387">
<rect width="20" height="20" fill="white"/>
</clipPath>
</defs>
</svg>
