<svg viewBox="-0.5 -0.5 16 16" fill="none" xmlns="http://www.w3.org/2000/svg" id="Eye-Closed--Streamline-Solar-Broken.svg" height="16" width="16"><desc>Eye Closed Streamline Icon: https://streamlinehq.com</desc><path d="M1.6808500000000002 4.19035c-0.10198125000000001 -0.23795 -0.37754999999999994 -0.34818125 -0.6155 -0.2462 -0.23795 0.10198125000000001 -0.34818125 0.37754999999999994 -0.2462 0.6155l0.8616999999999999 -0.36929999999999996ZM9.741999999999999 8.3304375l-0.1716875 -0.43618749999999995 0.1716875 0.43618749999999995Zm-4.09109375 0.255625c0.14119375 -0.2169375 0.07974375 -0.5073124999999999 -0.13724999999999998 -0.6485000000000001 -0.21699374999999999 -0.1411875 -0.50735625 -0.07974999999999999 -0.64855 0.13724999999999998l0.7857999999999999 0.51125ZM3.9821 9.431875c-0.14119375 0.2169375 -0.07974375 0.5073124999999999 0.13724999999999998 0.6485000000000001 0.21699374999999999 0.1411875 0.50735625 0.07974999999999999 0.64855 -0.13724999999999998l-0.7857999999999999 -0.51125ZM14.180875 4.55965c0.1019375 -0.23795 -0.00825 -0.51351875 -0.24625000000000002 -0.6155 -0.2379375 -0.10198125000000001 -0.5135 0.00825 -0.6155 0.2462l0.86175 0.36929999999999996ZM11.875 6.9555l-0.3208125 -0.34175 0.3208125 0.34175Zm0.6060625 1.2690000000000001c0.1830625 0.1830625 0.47981250000000003 0.1830625 0.662875 0 0.1830625 -0.1830625 0.1830625 -0.47987500000000005 0 -0.6629375l-0.662875 0.6629375ZM7.03125 10.3125c0 0.258875 0.20987499999999998 0.46875 0.46875 0.46875s0.46875 -0.20987499999999998 0.46875 -0.46875h-0.9375Zm3.2008750000000004 -0.369375c0.1411875 0.217 0.4315625 0.2784375 0.6485000000000001 0.13724999999999998 0.217 -0.1411875 0.2784375 -0.4315625 0.13724999999999998 -0.6485000000000001l-0.7857500000000001 0.51125ZM3.45645625 7.287c0.18305624999999998 -0.1830625 0.18305624999999998 -0.47987500000000005 0 -0.6629375 -0.18305624999999998 -0.1830625 -0.47985625 -0.1830625 -0.6629125 0l0.6629125 0.6629375Zm-1.6004125 0.27456250000000004c-0.18305624999999998 0.1830625 -0.18305624999999998 0.47987500000000005 0 0.6629375 0.18305624999999998 0.1830625 0.47985625 0.1830625 0.6629125 0l-0.6629125 -0.6629375ZM7.5 8.28125c-2.01493125 0 -3.46166875 -1.003375 -4.422125 -2.0377125 -0.48009375 -0.51701875 -0.8320937500000001 -1.0355125 -1.06375625 -1.4247 -0.11556250000000001 -0.19415000000000002 -0.20045000000000002 -0.3548875 -0.25574375 -0.46548125 -0.02763125 -0.05525625 -0.04781874999999999 -0.0978875 -0.0607 -0.1257875 -0.00644375 -0.01394375 -0.01105625 -0.02419375 -0.013856249999999999 -0.030487499999999997 -0.0013999999999999998 -0.00314375 -0.00234375 -0.005306249999999999 -0.0028374999999999997 -0.0064375000000000005 -0.00025 -0.0005625 -0.00038124999999999997 -0.000875 -0.00040625 -0.000925 -0.00000625 -0.000025 0.00000625 0.0000125 0.00005625000000000001 0.00011875000000000001 0.00001875 0.00005 0.00007500000000000001 0.00018125 0.00008749999999999999 0.00020625C1.68078125 4.1901875 1.6808500000000002 4.19035 1.25 4.375c-0.43084999999999996 0.18464999999999998 -0.43076875000000003 0.18484375 -0.43067500000000003 0.18505625 0.0000375 0.00009374999999999999 0.0001375 0.00031875 0.00021875 0.00050625 0.00015625 0.00036875000000000005 0.00034999999999999994 0.0008125 0.00056875 0.0013124999999999999 0.00043125 0.0010125 0.0009875 0.0022875 0.00165625 0.003825 0.00134375 0.0030687500000000003 0.0031562499999999998 0.0071874999999999994 0.0054375 0.01231875 0.0045625 0.0102625 0.0110125 0.024575 0.019375 0.042675 0.016712499999999998 0.036193750000000004 0.04108125 0.08755625 0.07326875 0.151925 0.06433124999999999 0.12866875 0.16011250000000002 0.30972500000000003 0.2886875 0.52573125 0.25661875 0.431125 0.64680625 1.0064 1.1823375 1.5830875C3.46166875 8.034625 5.13993125 9.21875 7.5 9.21875v-0.9375Zm2.0703125 -0.387c-0.6065 0.23875000000000002 -1.2942500000000001 0.387 -2.0703125 0.387v0.9375c0.898875 0 1.7028750000000001 -0.172375 2.4136875 -0.452125l-0.343375 -0.8723749999999999Zm-4.70520625 0.1805625L3.9821 9.431875l0.7857999999999999 0.51125 0.88300625 -1.3570625 -0.7857999999999999 -0.51125ZM13.75 4.375c-0.430875 -0.18464999999999998 -0.43081250000000004 -0.18474375 -0.43075 -0.18483125 0 -0.000025 0 -0.00010625000000000001 0.0000625 -0.00015625 0 -0.00008749999999999999 0.0000625 -0.0001625 0.0000625 -0.00021250000000000002 0.0000625 -0.0001 0.0000625 -0.00011875000000000001 0.0000625 -0.00005 -0.0000625 0.000125 -0.00025 0.000575 -0.000625 0.00135 -0.0006875000000000001 0.00154375 -0.0019375 0.004368749999999999 -0.00375 0.008425 -0.0036249999999999998 0.00811875 -0.0095 0.021156249999999998 -0.0176875 0.03875625 -0.0164375 0.0352 -0.041999999999999996 0.08856249999999999 -0.077 0.15713749999999999 -0.07 0.13724999999999998 -0.17725000000000002 0.334775 -0.32325 0.56908125 -0.29281250000000003 0.469975 -0.7369375 1.08048125 -1.3429375 1.6492499999999999l0.641625 0.6835625c0.680625 -0.638875 1.174 -1.3186437500000001 1.4969999999999999 -1.837025 0.1619375 -0.2598625 0.28218750000000004 -0.4810375 0.36275 -0.63894375 0.04025 -0.07900000000000001 0.0706875 -0.142325 0.0915 -0.186925 0.010375 -0.0223 0.018375 -0.03993125 0.023999999999999997 -0.052518749999999996 0.0028125 -0.006293750000000001 0.005062499999999999 -0.011325 0.0066875 -0.015050000000000001 0.0008125 -0.0018625 0.0014375 -0.00339375 0.002 -0.0046 0.00025 -0.0006000000000000001 0.0004375 -0.00111875 0.000625 -0.00155 0.000125 -0.00021875 0.00018749999999999998 -0.0004125 0.00025 -0.0005875 0.0000625 -0.00008749999999999999 0.000125 -0.00020625 0.000125 -0.00025 0.0000625 -0.00010625000000000001 0.000125 -0.00021250000000000002 -0.43075 -0.18486249999999999Zm-2.1958125 2.23875c-0.536875 0.5038750000000001 -1.1955 0.9701875 -1.9838749999999998 1.2805l0.343375 0.8723749999999999c0.921 -0.3625 1.6779374999999999 -0.90225 2.282125 -1.4693125l-0.641625 -0.6835625Zm-0.010625 0.6732499999999999 0.9375 0.9375 0.662875 -0.6629375 -0.9375 -0.9375 -0.662875 0.6629375ZM7.03125 8.75v1.5625h0.9375V8.75h-0.9375Zm2.317875 -0.16393749999999999 0.883 1.3570625 0.7857500000000001 -0.51125 -0.883 -1.3570625 -0.7857500000000001 0.51125ZM2.79354375 6.6240625l-0.9375 0.9375 0.6629125 0.6629375 0.9375 -0.9375 -0.6629125 -0.6629375Z" fill="#9d9d9d" stroke-width="1"></path></svg>