<svg width="30" height="40" viewBox="0 0 30 40" fill="none" xmlns="http://www.w3.org/2000/svg">
<path d="M2.45847 36.0513H1.81348V39.0894H2.45847V36.0513Z" fill="#D1AD86"/>
<path d="M7.67474 37.9607L4.66162 35.882V39.0847H5.30662V37.18L8.32444 39.2587V36.0513H7.67474V37.9607Z" fill="#D1AD86"/>
<path d="M12.0767 37.1988C11.6059 37.1847 11.1634 37.1659 11.1634 36.9496C11.1634 36.7332 11.6059 36.5968 11.8696 36.5968C12.4016 36.5968 13.0466 36.7661 13.2867 36.9213L13.3432 36.9543L13.668 36.4463L13.6163 36.4134C13.2443 36.1736 12.5617 36.0043 11.9543 36.0043C11.041 36.0043 10.5184 36.357 10.5184 36.9778C10.5184 37.5986 11.3941 37.782 12.1003 37.8055C12.7406 37.829 13.1313 37.8666 13.1313 38.1488C13.1313 38.431 12.7264 38.5438 12.1662 38.5438C11.6059 38.5438 11.0786 38.3886 10.7114 38.1253L10.6549 38.0877L10.3301 38.5862L10.3772 38.6238C10.8009 38.9389 11.4835 39.1364 12.1615 39.1364C13.1455 39.1364 13.781 38.7367 13.781 38.1206C13.781 37.5045 12.8347 37.227 12.072 37.2035L12.0767 37.1988Z" fill="#D1AD86"/>
<path d="M16.479 36.0513H15.834V39.0894H16.479V36.0513Z" fill="#D1AD86"/>
<path d="M18.6777 39.0847H19.3274V38.0736H21.6155V37.4763H19.3274V36.6486H21.898V36.056H18.6777V39.0847Z" fill="#D1AD86"/>
<path d="M26.2292 38.1112C26.5494 38.083 26.8177 37.9795 27.0154 37.8102C27.2226 37.6268 27.3356 37.3775 27.3356 37.1095C27.3356 36.5875 26.9024 36.056 26.0738 36.056H23.894V39.0894H24.539V37.5798L26.4552 39.0894H27.5004L26.2292 38.1112ZM24.5437 36.6486H26.0785C26.4552 36.6486 26.6294 36.8837 26.6294 37.1001C26.6294 37.3164 26.5823 37.3258 26.4976 37.4058C26.4034 37.4998 26.2622 37.5468 26.0974 37.5468H24.5437V36.6486Z" fill="#D1AD86"/>
<path d="M7.99509 5.17213H12.3971C12.7925 5.17213 13.4234 3.80359 13.5929 3.51201C13.6729 3.37092 14.4733 1.64496 14.4356 1.64496H10.0337C9.63819 1.64496 9.00732 3.0135 8.83783 3.30508C8.66834 3.59666 7.95743 5.17213 7.99509 5.17213Z" fill="#EAE5DF"/>
<path d="M27.3169 20.2872C26.8979 18.5471 25.5373 17.2868 23.6964 17.3056C22.5524 17.3197 21.4413 17.8652 20.5138 18.4907C18.8519 19.6053 17.5384 21.1808 16.4179 22.8127C15.0667 24.7832 13.9038 26.8948 12.9904 29.1051C12.4773 28.7759 12.2372 28.1975 12.2937 27.4168C12.3266 26.97 12.4349 26.5233 12.5761 26.0953C12.6373 25.9025 13.1034 24.7879 12.9151 24.9196C10.5046 26.6079 6.03202 28.0752 4.19591 24.8161C4.04525 24.5527 3.94167 24.2706 3.89459 23.979C4.16766 23.725 4.44543 23.4664 4.72791 23.2171C6.75235 26.1988 10.7777 25.0748 13.0893 22.9585C15.0478 21.162 16.5214 18.8575 17.8632 16.586C18.9931 14.6626 20.043 12.6638 20.9234 10.6087C22.5006 6.9216 22.4865 4.84762 22.2511 0.897193C22.2369 0.624425 21.3848 1.89891 21.3236 2.00237C21.0035 2.51969 20.1513 3.58254 20.1937 4.24565V4.25976C20.382 7.36837 20.3255 8.18668 19.6993 11.2436C19.0638 14.3428 17.3595 17.268 15.062 19.4125C13.2164 21.1384 10.1421 22.3048 7.97643 20.9033C9.40295 19.9721 10.8342 19.0457 12.143 17.9546C13.2117 17.0657 14.0592 16.0358 14.7889 14.8507C15.4574 13.7596 16.5497 12.2265 16.3237 10.8438C16.1589 9.8515 15.3539 9.13196 14.5629 8.59113C13.2258 7.67876 11.4321 6.74759 9.79371 6.66294C8.40956 6.58769 7.3126 7.27431 6.47457 8.32776C5.20341 9.92675 4.11116 11.9067 3.58387 13.8913C2.90591 16.4497 3.00949 19.6617 4.15353 22.1543C3.28255 23.2877 2.54811 24.5951 2.06789 25.8884C1.74304 26.7631 1.72421 27.6284 2.22325 28.442C4.11587 31.5318 8.3719 30.1586 10.8389 28.5173C10.1798 30.1351 9.58656 32.4395 11.4933 32.8769C12.3549 33.0744 13.3718 32.938 14.2475 32.9192C15.3021 32.9004 16.3614 32.8533 17.4113 32.7405C19.238 32.5477 21.1588 32.1714 22.7219 31.1556C24.478 30.0128 25.6314 27.8918 26.4647 26.0342C27.2651 24.2565 27.7971 22.2248 27.331 20.2825L27.3169 20.2872ZM10.2833 10.9332C11.4651 11.4505 12.755 12.0713 13.6166 13.0636C13.9885 13.4915 14.1486 13.896 14.2051 14.3381C14.0262 14.4886 13.8473 14.6343 13.6684 14.7801C12.7033 15.5467 11.6722 16.2333 10.6412 16.9152C9.33233 17.7806 7.9623 18.6318 6.71468 19.61C5.23637 17.3479 4.99156 14.1452 5.41998 11.5587C5.46706 11.2906 5.53768 11.0319 5.61301 10.7733C5.77308 10.6604 5.94257 10.5569 6.12147 10.477C7.49621 9.8515 8.98865 10.3782 10.2833 10.9379V10.9332ZM22.9526 28.4891C20.2313 29.4579 16.851 29.6084 13.9838 29.4061C13.8096 29.392 13.6496 29.3638 13.4989 29.3262C13.8473 28.7618 14.1674 28.1693 14.3887 27.5626C15.2785 25.0795 16.738 23.0102 19.1956 21.604C21.0835 20.5271 23.6023 20.4941 24.8122 22.601C25.5796 23.9367 25.5514 25.6109 25.203 27.0688C25.1889 27.1346 25.1653 27.2099 25.1371 27.2898C25.0947 27.3274 25.0523 27.3651 25.0147 27.398C24.3979 27.8777 23.6917 28.2257 22.9573 28.4844L22.9526 28.4891Z" fill="#E5DFD8"/>
<g style="mix-blend-mode:multiply" opacity="0.6">
<path d="M7.99509 5.17213H12.3971C12.7925 5.17213 13.4234 3.80359 13.5929 3.51201C13.6729 3.37092 14.4733 1.64496 14.4356 1.64496H10.0337C9.63819 1.64496 9.00732 3.0135 8.83783 3.30508C8.66834 3.59666 7.95743 5.17213 7.99509 5.17213Z" fill="url(#paint0_linear_2149_665)"/>
</g>
<path style="mix-blend-mode:multiply" opacity="0.8" d="M5.61768 10.7686C5.77775 10.6557 5.94724 10.5523 6.12143 10.4723C7.49617 9.84683 8.9886 10.3736 10.2833 10.9332C11.465 11.4505 12.755 12.0713 13.6166 13.0636C13.9885 13.4916 14.1486 13.896 14.2051 14.3381C14.2051 14.3381 15.9706 12.979 16.2907 11.7609C16.3472 11.4505 16.3613 11.1448 16.3142 10.8438C16.3142 10.8344 16.3142 10.8203 16.3095 10.8062C16.1353 9.83272 15.3397 9.12258 14.5582 8.59116C13.2211 7.6788 11.4273 6.74762 9.78896 6.66297C8.40481 6.58772 7.30785 7.27435 6.46982 8.32779C6.46512 8.3372 6.4557 8.3419 6.45099 8.35131C6.0461 8.89684 5.61768 10.7639 5.61768 10.7639V10.7686Z" fill="url(#paint1_linear_2149_665)"/>
<path style="mix-blend-mode:multiply" opacity="0.8" d="M20.9237 10.6134C22.5009 6.9263 22.4868 4.85232 22.2514 0.901892C22.2372 0.629125 21.3851 1.90361 21.3239 2.00707C21.0037 2.52439 20.1516 3.58724 20.194 4.25035V4.26446C20.3682 7.17085 20.3305 8.07851 19.8126 10.6839C19.7797 10.872 19.742 11.0554 19.6996 11.2436C19.6478 11.4834 19.5913 11.7232 19.5301 11.9631C18.8945 14.5873 18.4614 15.5373 18.3296 15.796C19.2853 14.117 20.1751 12.3817 20.9331 10.6087L20.9237 10.6134Z" fill="url(#paint2_linear_2149_665)"/>
<path style="mix-blend-mode:multiply" opacity="0.8" d="M27.317 20.2873C27.1758 19.6994 26.9262 19.168 26.5873 18.7212L24.2427 21.858C24.4498 22.0697 24.6429 22.3142 24.8076 22.6011C25.575 23.9367 25.5468 25.6109 25.1984 27.0688C25.1843 27.13 25.1607 27.2099 25.1325 27.2899C25.1843 27.2475 26.0317 26.5609 26.6249 25.6391C27.3264 23.9602 27.7548 22.0838 27.3217 20.2826L27.317 20.2873Z" fill="url(#paint3_linear_2149_665)"/>
<path style="mix-blend-mode:multiply" opacity="0.8" d="M14.3841 27.5626C14.8879 26.1564 15.5752 24.8866 16.5168 23.7956L16.0319 23.3911C14.8455 25.197 13.8144 27.1111 12.9858 29.1098C13.0282 29.138 13.2401 29.2603 13.4896 29.3262C13.838 28.7618 14.1581 28.1693 14.3794 27.5626H14.3841Z" fill="url(#paint4_linear_2149_665)"/>
<path style="mix-blend-mode:multiply" opacity="0.8" d="M6.71484 19.61C6.76192 19.6993 7.18093 20.4283 7.97188 20.908C8.55096 20.527 9.13475 20.1508 9.70442 19.7605L8.70633 18.185C8.02837 18.6412 7.35513 19.1068 6.71484 19.61Z" fill="url(#paint5_linear_2149_665)"/>
<path style="mix-blend-mode:multiply" opacity="0.8" d="M3.89476 23.979C4.16782 23.7251 4.4456 23.4664 4.72808 23.2171C4.53505 22.9491 4.14899 22.159 4.14899 22.159C3.76764 22.8879 3.89947 23.979 3.89947 23.979H3.89476Z" fill="url(#paint6_linear_2149_665)"/>
<path style="mix-blend-mode:multiply" opacity="0.8" d="M13.4991 29.3215C13.6498 29.3591 13.8098 29.3873 13.984 29.4014C15.0339 29.4767 16.1497 29.5002 17.2749 29.4579C17.2843 30.0504 17.289 32.1761 16.9077 32.7875C16.0179 32.8675 15.1281 32.9004 14.2383 32.9192C13.3626 32.938 12.3409 33.0744 11.4841 32.8769C9.58206 32.4442 10.1706 30.1398 10.8297 28.522C11.6959 26.8101 12.9012 24.9478 12.92 24.9196C12.9294 24.9196 12.9341 24.9102 12.9389 24.9102C12.9436 24.9102 12.9483 24.9149 12.953 24.9243C12.953 24.9337 12.953 24.9431 12.953 24.9572C12.953 24.9713 12.953 24.9901 12.9436 25.0089C12.9436 25.0089 12.9436 25.0136 12.9436 25.0183C12.8871 25.2864 12.614 25.9448 12.5716 26.0859C12.4304 26.5138 12.3221 26.9559 12.2892 27.4074C12.2327 28.1881 12.4728 28.7712 12.9859 29.0957C12.9859 29.0957 13.226 29.2368 13.4897 29.3121L13.4991 29.3215Z" fill="url(#paint7_linear_2149_665)"/>
<defs>
<linearGradient id="paint0_linear_2149_665" x1="9.32275" y1="6.1033" x2="13.0978" y2="0.705233" gradientUnits="userSpaceOnUse">
<stop stop-color="#D5CBBF" stop-opacity="0"/>
<stop offset="0.2" stop-color="#D5CBBF" stop-opacity="0.01"/>
<stop offset="0.3" stop-color="#D5CBBF" stop-opacity="0.09"/>
<stop offset="0.5" stop-color="#D5CBBF" stop-opacity="0.6"/>
<stop offset="0.6" stop-color="#D5CBBF" stop-opacity="0.25"/>
<stop offset="1" stop-color="#D5CBBF" stop-opacity="0"/>
</linearGradient>
<linearGradient id="paint1_linear_2149_665" x1="5.61768" y1="10.5005" x2="16.3707" y2="10.5005" gradientUnits="userSpaceOnUse">
<stop stop-color="#D5CBBF" stop-opacity="0.81"/>
<stop offset="0.1" stop-color="#D5CBBF" stop-opacity="0.49"/>
<stop offset="0.2" stop-color="#D5CBBF" stop-opacity="0.16"/>
<stop offset="0.3" stop-color="#D5CBBF" stop-opacity="0.04"/>
<stop offset="0.4" stop-color="#D5CBBF" stop-opacity="0.01"/>
<stop offset="0.5" stop-color="#D5CBBF" stop-opacity="0"/>
<stop offset="0.6" stop-color="#D5CBBF" stop-opacity="0"/>
<stop offset="0.7" stop-color="#D5CBBF" stop-opacity="0.04"/>
<stop offset="0.8" stop-color="#D5CBBF" stop-opacity="0.16"/>
<stop offset="0.9" stop-color="#D5CBBF" stop-opacity="0.49"/>
<stop offset="1" stop-color="#D5CBBF"/>
</linearGradient>
<linearGradient id="paint2_linear_2149_665" x1="18.2731" y1="8.33246" x2="23.08" y2="8.33246" gradientUnits="userSpaceOnUse">
<stop stop-color="#D5CBBF"/>
<stop offset="1" stop-color="#D5CBBF" stop-opacity="0"/>
</linearGradient>
<linearGradient id="paint3_linear_2149_665" x1="27.6419" y1="24.501" x2="24.0105" y2="21.4497" gradientUnits="userSpaceOnUse">
<stop stop-color="#D5CBBF"/>
<stop offset="0.1" stop-color="#D5CBBF" stop-opacity="0.64"/>
<stop offset="0.4" stop-color="#D5CBBF" stop-opacity="0.25"/>
<stop offset="0.6" stop-color="#D5CBBF" stop-opacity="0.09"/>
<stop offset="0.8" stop-color="#D5CBBF" stop-opacity="0.01"/>
<stop offset="0.9" stop-color="#D5CBBF" stop-opacity="0"/>
<stop offset="1" stop-color="#D5CBBF" stop-opacity="0"/>
</linearGradient>
<linearGradient id="paint4_linear_2149_665" x1="12.9811" y1="26.3539" x2="16.644" y2="26.3539" gradientUnits="userSpaceOnUse">
<stop stop-color="#D5CBBF"/>
<stop offset="0.1" stop-color="#D5CBBF" stop-opacity="0.64"/>
<stop offset="0.3" stop-color="#D5CBBF" stop-opacity="0.36"/>
<stop offset="0.4" stop-color="#D5CBBF" stop-opacity="0.16"/>
<stop offset="0.6" stop-color="#D5CBBF" stop-opacity="0.04"/>
<stop offset="0.7" stop-color="#D5CBBF" stop-opacity="0"/>
<stop offset="0.9" stop-color="#D5CBBF" stop-opacity="0"/>
<stop offset="1" stop-color="#D5CBBF" stop-opacity="0"/>
</linearGradient>
<linearGradient id="paint5_linear_2149_665" x1="9.47844" y1="19.1303" x2="6.88499" y2="20.0774" gradientUnits="userSpaceOnUse">
<stop stop-color="#D5CBBF" stop-opacity="0"/>
<stop offset="0.1" stop-color="#D5CBBF" stop-opacity="0"/>
<stop offset="0.3" stop-color="#D5CBBF" stop-opacity="0"/>
<stop offset="0.4" stop-color="#D5CBBF" stop-opacity="0.04"/>
<stop offset="0.6" stop-color="#D5CBBF" stop-opacity="0.16"/>
<stop offset="0.7" stop-color="#D5CBBF" stop-opacity="0.36"/>
<stop offset="0.9" stop-color="#D5CBBF" stop-opacity="0.64"/>
<stop offset="1" stop-color="#D5CBBF"/>
</linearGradient>
<linearGradient id="paint6_linear_2149_665" x1="3.87593" y1="23.0667" x2="4.72808" y2="23.0667" gradientUnits="userSpaceOnUse">
<stop stop-color="#D5CBBF"/>
<stop offset="0.5" stop-color="#D5CBBF" stop-opacity="0.5"/>
<stop offset="1" stop-color="#D5CBBF"/>
</linearGradient>
<linearGradient id="paint7_linear_2149_665" x1="12.7694" y1="24.9384" x2="14.2587" y2="33.3853" gradientUnits="userSpaceOnUse">
<stop stop-color="#D5CBBF"/>
<stop offset="0.2" stop-color="#D5CBBF" stop-opacity="0.49"/>
<stop offset="0.3" stop-color="#D5CBBF" stop-opacity="0.25"/>
<stop offset="0.5" stop-color="#D5CBBF" stop-opacity="0.09"/>
<stop offset="0.6" stop-color="#D5CBBF" stop-opacity="0.04"/>
<stop offset="0.7" stop-color="#D5CBBF" stop-opacity="0"/>
<stop offset="0.9" stop-color="#D5CBBF" stop-opacity="0"/>
<stop offset="1" stop-color="#D5CBBF" stop-opacity="0"/>
</linearGradient>
</defs>
</svg>
