<svg width="23" height="22" viewBox="0 0 23 22" fill="none" xmlns="http://www.w3.org/2000/svg">
<path d="M10.1465 10.0598H16.2572" stroke="white" stroke-width="1.375" stroke-linecap="round"/>
<path d="M6.85742 10.0598H7.3275" stroke="white" stroke-width="1.375" stroke-linecap="round"/>
<path d="M6.85742 6.76941H7.3275" stroke="white" stroke-width="1.375" stroke-linecap="round"/>
<path d="M6.85742 13.3502H7.3275" stroke="white" stroke-width="1.375" stroke-linecap="round"/>
<path d="M16.2572 13.3502H15.3171M10.1465 13.3502H12.9668" stroke="white" stroke-width="1.375" stroke-linecap="round"/>
<path d="M16.2572 6.76941H13.4369M10.1465 6.76941H11.0866" stroke="white" stroke-width="1.375" stroke-linecap="round"/>
<path d="M20.0178 6.2994V5.7072C20.0178 4.58563 20.0178 4.02489 19.8692 3.5726C19.5877 2.71495 18.9336 2.04163 18.1006 1.75176C17.6612 1.59888 17.1165 1.59888 16.027 1.59888H7.08655C5.99704 1.59888 5.45237 1.59888 5.01297 1.75167C4.17989 2.04163 3.52582 2.71495 3.2442 3.5726C3.0957 4.02489 3.0957 4.58563 3.0957 5.7072V13.8203M20.0178 10.0599V18.8727C20.0178 19.6795 19.0918 20.1077 18.506 19.5716C18.1618 19.2566 17.6433 19.2566 17.2991 19.5716L16.8449 19.9872C16.2417 20.5392 15.3329 20.5392 14.7297 19.9872C14.1265 19.4352 13.2176 19.4353 12.6144 19.9872C12.0112 20.5391 11.1023 20.5392 10.4991 19.9872C9.89594 19.4352 8.98706 19.4353 8.38387 19.9872C7.78076 20.5392 6.8718 20.5392 6.2686 19.9872L5.81442 19.5716C5.47033 19.2566 4.9517 19.2566 4.60752 19.5716C4.02177 20.1077 3.0957 19.6795 3.0957 18.8727V17.5808" stroke="white" stroke-width="1.375" stroke-linecap="round"/>
</svg>
