<svg width="238" height="101" viewBox="0 0 238 101" fill="none" xmlns="http://www.w3.org/2000/svg">
<path d="M36.1227 31.3278H42.8761C43.4812 31.3278 44.4495 29.2224 44.7157 28.7626C44.8368 28.5448 46.0713 25.8829 46.0229 25.8829H39.2694C38.6643 25.8829 37.696 27.9883 37.4298 28.4481C37.1635 28.9078 36.0742 31.3278 36.1227 31.3278Z" fill="#465045"/>
<path d="M65.8238 54.5596C65.1702 51.8734 63.0885 49.9375 60.2564 49.9859C58.4894 49.9859 56.795 50.857 55.3668 51.8008C52.8252 53.519 50.7919 55.939 49.0733 58.4558C46.9916 61.4807 45.2246 64.7235 43.7964 68.1357C42.9976 67.6275 42.6345 66.7321 42.7314 65.5463C42.7798 64.8687 42.9492 64.1669 43.1671 63.5135C43.2639 63.2231 43.9901 61.5049 43.6754 61.6985C39.9719 64.2879 33.0974 66.5385 30.2896 61.5291C30.0717 61.1177 29.9023 60.6822 29.8296 60.2466C30.2411 59.8594 30.6768 59.448 31.1125 59.085C34.2109 63.6587 40.4076 61.9405 43.9659 58.6978C46.9674 55.939 49.2427 52.4058 51.3002 48.8969C53.0431 45.9445 54.6406 42.8711 55.9962 39.701C58.4168 34.0382 58.3926 30.8438 58.0295 24.7697C58.0053 24.3583 56.6981 26.3185 56.6013 26.4637C56.1172 27.2623 54.8101 28.8837 54.8585 29.9001C55.149 34.6916 55.0521 35.95 54.1081 40.669C53.1399 45.4363 50.5014 49.9375 46.9916 53.2286C44.1595 55.8906 39.4394 57.6814 36.099 55.5276C38.3017 54.0998 40.4802 52.672 42.5135 51.0022C44.1595 49.6229 45.4666 48.0499 46.5801 46.2349C47.6209 44.5651 49.2912 42.1935 48.9281 40.0882C48.686 38.5636 47.4273 37.4504 46.217 36.6276C44.1595 35.224 41.4 33.7962 38.8826 33.6752C36.7525 33.5542 35.0581 34.619 33.7752 36.2404C31.8145 38.7088 30.1443 41.7337 29.3455 44.8071C28.3047 48.7517 28.4741 53.6884 30.2169 57.512C28.8856 59.2544 27.7479 61.263 27.0218 63.2473C26.5134 64.6025 26.4892 65.9093 27.2638 67.1677C30.1685 71.9108 36.7041 69.8055 40.5044 67.2887C39.4878 69.7813 38.5922 73.3144 41.4969 73.992C42.8282 74.2824 44.3774 74.0888 45.7329 74.0646C47.3547 74.0404 48.9765 73.9678 50.5983 73.7984C53.4061 73.508 56.3593 72.9272 58.7556 71.3543C61.4667 69.5877 63.2337 66.3449 64.5166 63.4893C65.7511 60.7548 66.5741 57.633 65.848 54.6564L65.8238 54.5596ZM39.633 40.185C41.4485 40.9835 43.4333 41.9273 44.7647 43.4519C45.3456 44.1053 45.5877 44.7345 45.6603 45.4121C45.394 45.6541 45.1035 45.8719 44.8373 46.0897C43.3607 47.2755 41.7631 48.3161 40.1897 49.3809C38.1807 50.7118 36.0748 52.0186 34.1625 53.519C31.8871 50.0343 31.524 45.1217 32.1776 41.1287C32.2502 40.7174 32.347 40.306 32.4681 39.9188C32.7101 39.7494 32.9764 39.58 33.2427 39.459C35.3486 38.491 37.6481 39.3138 39.633 40.1608V40.185ZM59.0945 67.1677C54.9069 68.6681 49.7269 68.8859 45.3214 68.5713C45.0551 68.5713 44.8131 68.4987 44.571 68.4503C45.1035 67.5791 45.6119 66.6837 45.9265 65.7399C47.3063 61.9163 49.5332 58.7462 53.3093 56.5924C56.214 54.9226 60.087 54.8742 61.9266 58.117C63.1127 60.174 63.0643 62.7391 62.5318 64.9897C62.5318 65.0865 62.4833 65.2075 62.4349 65.3285C62.3623 65.4011 62.3139 65.4495 62.2413 65.4979C61.2973 66.2239 60.208 66.7805 59.0703 67.1677H59.0945Z" fill="#465045"/>
<g style="mix-blend-mode:multiply" opacity="0.3">
<path d="M36.1227 31.3278H42.8761C43.4812 31.3278 44.4495 29.2224 44.7157 28.7626C44.8368 28.5448 46.0713 25.8829 46.0229 25.8829H39.2694C38.6643 25.8829 37.696 27.9883 37.4298 28.4481C37.1635 28.9078 36.0742 31.3278 36.1227 31.3278Z" fill="url(#paint0_linear_2103_3504)"/>
</g>
<path style="mix-blend-mode:multiply" opacity="0.7" d="M32.4668 39.943C32.7089 39.7736 32.9751 39.6042 33.2414 39.4832C35.3473 38.5152 37.6468 39.338 39.6317 40.185C41.4472 40.9836 43.4321 41.9274 44.7634 43.4519C45.3443 44.1053 45.5864 44.7345 45.659 45.4121C45.659 45.4121 48.37 43.3309 48.8542 41.4434C48.951 40.9594 48.9752 40.4996 48.9026 40.0398V39.9914C48.6363 38.491 47.4018 37.402 46.2157 36.5792C44.1582 35.1756 41.3988 33.7478 38.8814 33.6268C36.7512 33.5058 35.0568 34.5706 33.7739 36.192C33.7739 36.192 33.7739 36.2162 33.7497 36.2404C33.1204 37.0874 32.4668 39.943 32.4668 39.943Z" fill="url(#paint1_linear_2103_3504)"/>
<path style="mix-blend-mode:multiply" opacity="0.7" d="M55.9959 39.701C58.4165 34.0382 58.3923 30.8438 58.0292 24.7697C58.005 24.3583 56.6979 26.3185 56.6011 26.4637C56.117 27.2623 54.8098 28.8837 54.8583 29.9001C55.1245 34.4012 55.0761 35.7806 54.2773 39.7978C54.2289 40.0882 54.1805 40.3786 54.1079 40.669C54.0352 41.0319 53.9384 41.4191 53.8416 41.7821C52.8734 45.8235 52.1956 47.2755 52.002 47.6627C53.4785 45.0733 54.834 42.4113 55.9959 39.701Z" fill="url(#paint2_linear_2103_3504)"/>
<path style="mix-blend-mode:multiply" opacity="0.7" d="M65.8237 54.5596C65.6058 53.6642 65.2185 52.8414 64.7102 52.1396L61.1035 56.9554C61.4182 57.27 61.7087 57.6572 61.9749 58.0928C63.161 60.1498 63.1126 62.7149 62.5801 64.9655C62.5801 65.0623 62.5317 65.1833 62.4833 65.3043C62.5559 65.2317 63.863 64.1911 64.7828 62.7634C65.8479 60.174 66.5256 57.2942 65.8479 54.5354L65.8237 54.5596Z" fill="url(#paint3_linear_2103_3504)"/>
<path style="mix-blend-mode:multiply" opacity="0.7" d="M45.9492 65.7641C46.7238 63.6104 47.7647 61.6502 49.217 59.9804L48.4667 59.3512C46.6512 62.1342 45.0536 65.0623 43.7949 68.1357C43.8675 68.1841 44.1822 68.3777 44.5695 68.4745C45.102 67.6033 45.6104 66.7079 45.925 65.7641H45.9492Z" fill="url(#paint4_linear_2103_3504)"/>
<path style="mix-blend-mode:multiply" opacity="0.7" d="M34.1621 53.519C34.2347 53.6642 34.8641 54.7774 36.0986 55.5034C36.9942 54.9226 37.8898 54.3418 38.7612 53.7368L37.2362 51.3168C36.1954 52.0186 35.1545 52.7446 34.1621 53.519Z" fill="url(#paint5_linear_2103_3504)"/>
<path style="mix-blend-mode:multiply" opacity="0.7" d="M29.8298 60.2466C30.2413 59.8594 30.677 59.448 31.1127 59.085C30.8223 58.6736 30.2171 57.4636 30.2171 57.4636C29.6362 58.5768 29.8298 60.2708 29.8298 60.2708V60.2466Z" fill="url(#paint6_linear_2103_3504)"/>
<path style="mix-blend-mode:multiply" opacity="0.7" d="M44.5696 68.4503C44.7875 68.5229 45.0537 68.5471 45.32 68.5713C46.9418 68.6923 48.6362 68.7165 50.379 68.6681C50.379 69.5877 50.379 72.8546 49.8223 73.7742C48.4667 73.8952 47.087 73.9436 45.7315 73.9678C44.376 73.992 42.8268 74.2098 41.4955 73.8952C38.5666 73.2176 39.4864 69.6845 40.503 67.1919C41.8343 64.5541 43.674 61.6985 43.7224 61.6501C43.7224 61.6501 43.7224 61.6501 43.7466 61.6501C43.7466 61.6501 43.7466 61.6743 43.7466 61.6985C43.7466 61.6985 43.7466 61.7469 43.7466 61.7711C43.6498 62.1825 43.2383 63.1989 43.1657 63.4167C42.9478 64.0701 42.7784 64.7477 42.73 65.4495C42.6331 66.6595 43.0204 67.5549 43.795 68.0389C43.795 68.0389 44.1581 68.2567 44.5696 68.3777V68.4503Z" fill="url(#paint7_linear_2103_3504)"/>
<path d="M85.0662 41.879H81.75V57.4878H85.0662V41.879Z" fill="#D1AD86"/>
<path d="M111.862 51.6798L96.3945 41.0078V57.4878H99.7107V47.6627L115.202 58.359V41.8789H111.862V51.6798Z" fill="#D1AD86"/>
<path d="M134.47 47.7837C132.074 47.7111 129.799 47.6143 129.799 46.5011C129.799 45.3879 132.074 44.6861 133.429 44.6861C136.165 44.6861 139.457 45.5573 140.715 46.3559L141.006 46.5253L142.676 43.9117L142.41 43.7423C140.498 42.5082 136.988 41.637 133.865 41.637C129.193 41.637 126.507 43.4519 126.507 46.6221C126.507 49.7923 131.009 50.7603 134.64 50.8813C137.932 51.0023 139.941 51.1959 139.941 52.6479C139.941 54.0998 137.859 54.6806 135.003 54.6806C132.146 54.6806 129.435 53.882 127.523 52.5511L127.233 52.3575L125.562 54.9226L125.805 55.1162C127.983 56.7376 131.493 57.754 134.954 57.754C140.013 57.754 143.281 55.697 143.281 52.5269C143.281 49.3567 138.416 47.9289 134.519 47.8079L134.47 47.7837Z" fill="#D1AD86"/>
<path d="M157.103 41.879H153.787V57.4878H157.103V41.879Z" fill="#D1AD86"/>
<path d="M168.383 57.4636H171.699V52.2607H183.463V49.2115H171.699V44.9523H184.915V41.879H168.383V57.4636Z" fill="#D1AD86"/>
<path d="M207.185 52.4543C208.831 52.3091 210.21 51.7767 211.203 50.9055C212.268 49.9617 212.849 48.7033 212.849 47.2997C212.849 44.6135 210.622 41.879 206.362 41.879H195.154V57.4636H198.47V49.6955L208.298 57.4636H213.672L207.136 52.4543H207.185ZM198.495 44.9523H206.362C208.298 44.9523 209.194 46.1623 209.194 47.2755C209.194 48.3887 208.952 48.4371 208.516 48.8485C208.032 49.3325 207.306 49.5745 206.458 49.5745H198.47V44.9523H198.495Z" fill="#D1AD86"/>
<defs>
<linearGradient id="paint0_linear_2103_3504" x1="38.1802" y1="32.7556" x2="43.9634" y2="24.4779" gradientUnits="userSpaceOnUse">
<stop stop-color="#3D4432" stop-opacity="0"/>
<stop offset="0.2" stop-color="#3D4432" stop-opacity="0.01"/>
<stop offset="0.4" stop-color="#3D4432" stop-opacity="0.16"/>
<stop offset="0.5" stop-color="#3D4432" stop-opacity="0.6"/>
<stop offset="1" stop-color="#3D4432" stop-opacity="0"/>
</linearGradient>
<linearGradient id="paint1_linear_2103_3504" x1="32.4668" y1="39.5316" x2="48.9994" y2="39.5316" gradientUnits="userSpaceOnUse">
<stop stop-color="#3D4432" stop-opacity="0.64"/>
<stop offset="0.3" stop-color="#3D4432" stop-opacity="0.09"/>
<stop offset="0.4" stop-color="#3D4432" stop-opacity="0"/>
<stop offset="0.5" stop-color="#3D4432" stop-opacity="0"/>
<stop offset="0.6" stop-color="#3D4432" stop-opacity="0.01"/>
<stop offset="0.8" stop-color="#3D4432" stop-opacity="0.25"/>
<stop offset="1" stop-color="#3D4432"/>
</linearGradient>
<linearGradient id="paint2_linear_2103_3504" x1="51.9293" y1="36.192" x2="59.2879" y2="36.192" gradientUnits="userSpaceOnUse">
<stop stop-color="#3D4432"/>
<stop offset="1" stop-color="#3D4432" stop-opacity="0"/>
</linearGradient>
<linearGradient id="paint3_linear_2103_3504" x1="66.3078" y1="61.0452" x2="60.7174" y2="56.3732" gradientUnits="userSpaceOnUse">
<stop stop-color="#3D4432" stop-opacity="0.81"/>
<stop offset="0.5" stop-color="#3D4432" stop-opacity="0.16"/>
<stop offset="0.8" stop-color="#3D4432" stop-opacity="0.01"/>
<stop offset="1" stop-color="#3D4432" stop-opacity="0"/>
</linearGradient>
<linearGradient id="paint4_linear_2103_3504" x1="43.7949" y1="63.9008" x2="49.4107" y2="63.9008" gradientUnits="userSpaceOnUse">
<stop stop-color="#3D4432"/>
<stop offset="0.2" stop-color="#3D4432" stop-opacity="0.36"/>
<stop offset="0.5" stop-color="#3D4432" stop-opacity="0.09"/>
<stop offset="0.8" stop-color="#3D4432" stop-opacity="0"/>
<stop offset="1" stop-color="#3D4432" stop-opacity="0"/>
</linearGradient>
<linearGradient id="paint5_linear_2103_3504" x1="38.3981" y1="52.793" x2="34.4286" y2="54.2457" gradientUnits="userSpaceOnUse">
<stop stop-color="#3D4432" stop-opacity="0"/>
<stop offset="0.2" stop-color="#3D4432" stop-opacity="0"/>
<stop offset="0.5" stop-color="#3D4432" stop-opacity="0.09"/>
<stop offset="0.8" stop-color="#3D4432" stop-opacity="0.36"/>
<stop offset="1" stop-color="#3D4432"/>
</linearGradient>
<linearGradient id="paint6_linear_2103_3504" x1="29.8056" y1="58.843" x2="31.1127" y2="58.843" gradientUnits="userSpaceOnUse">
<stop stop-color="#3D4432"/>
<stop offset="0.5" stop-color="#3D4432" stop-opacity="0.5"/>
<stop offset="1" stop-color="#3D4432"/>
</linearGradient>
<linearGradient id="paint7_linear_2103_3504" x1="40.1399" y1="65.9335" x2="49.8203" y2="74.067" gradientUnits="userSpaceOnUse">
<stop stop-color="#3D4432"/>
<stop offset="0.3" stop-color="#3D4432" stop-opacity="0.36"/>
<stop offset="0.5" stop-color="#3D4432" stop-opacity="0.09"/>
<stop offset="0.8" stop-color="#3D4432" stop-opacity="0"/>
<stop offset="1" stop-color="#3D4432" stop-opacity="0"/>
</linearGradient>
</defs>
</svg>
