<svg width="35" height="39" viewBox="0 0 35 39" fill="none" xmlns="http://www.w3.org/2000/svg">
<g filter="url(#filter0_d_2074_3910)">
<path fill-rule="evenodd" clip-rule="evenodd" d="M21.559 27.436C21.3926 26.9238 21.6873 26.3791 22.1931 26.1944C27.2229 24.3573 30.8136 19.5302 30.8136 13.8644C30.8136 6.61701 24.9384 0.741821 17.691 0.741821C10.4435 0.741821 4.56836 6.61701 4.56836 13.8644C4.56836 19.5311 8.16014 24.3588 13.1913 26.1953C13.6972 26.3799 13.992 26.9247 13.8256 27.4369L13.7452 27.6842C13.6183 28.0749 13.7573 28.5029 14.0897 28.7444L17.1351 30.957C17.4674 31.1984 17.9174 31.1984 18.2498 30.957L21.2952 28.7444C21.6275 28.5029 21.7666 28.0749 21.6396 27.6842L21.559 27.436Z" fill="white"/>
<circle cx="17.5913" cy="13.5734" r="10.4981" fill="#465045"/>
<path d="M13.5903 13.755V15.0574C13.5903 16.6946 13.5903 17.5132 14.0989 18.0218C14.6076 18.5304 15.4262 18.5304 17.0634 18.5304H17.4975C19.1347 18.5304 19.9533 18.5304 20.4619 18.0218M20.9706 13.755V15.0574C20.9706 15.5652 20.9706 15.9943 20.9554 16.3598" stroke="white" stroke-width="0.694609" stroke-linecap="round"/>
<path d="M16.1955 9.84766H18.3661M16.1955 9.84766L15.9125 12.677C15.8316 13.4865 16.4673 14.189 17.2808 14.189C18.0944 14.189 18.73 13.4865 18.6491 12.677L18.3661 9.84766M16.1955 9.84766H15.2915C14.8973 9.84766 14.7002 9.84766 14.5311 9.894C14.1749 9.99165 13.8769 10.2359 13.7113 10.5661M16.1955 9.84766L15.8809 12.993C15.813 13.672 15.2418 14.189 14.5595 14.189C13.7214 14.189 13.0928 13.4222 13.2572 12.6004L13.2868 12.4524M18.3661 9.84766H19.2701C19.6643 9.84766 19.8614 9.84766 20.0305 9.894C20.3866 9.99165 20.6847 10.2359 20.8503 10.5661C20.9289 10.7227 20.9675 10.916 21.0448 11.3026L21.3044 12.6004C21.4688 13.4222 20.8402 14.189 20.0021 14.189C19.3199 14.189 18.7485 13.672 18.6806 12.993L18.3661 9.84766Z" stroke="white" stroke-width="0.694609" stroke-linecap="round"/>
<path d="M16.1953 18.3134V17.011C16.1953 16.6052 16.1953 16.4024 16.2826 16.2513C16.3397 16.1523 16.4219 16.0701 16.5209 16.0129C16.672 15.9257 16.8749 15.9257 17.2806 15.9257C17.6864 15.9257 17.8892 15.9257 18.0404 16.0129C18.1393 16.0701 18.2216 16.1523 18.2787 16.2513C18.366 16.4024 18.366 16.6052 18.366 17.011V18.3134" stroke="white" stroke-width="0.694609" stroke-linecap="round"/>
</g>
<defs>
<filter id="filter0_d_2074_3910" x="0.775327" y="0.741821" width="33.8312" height="37.9823" filterUnits="userSpaceOnUse" color-interpolation-filters="sRGB">
<feFlood flood-opacity="0" result="BackgroundImageFix"/>
<feColorMatrix in="SourceAlpha" type="matrix" values="0 0 0 0 0 0 0 0 0 0 0 0 0 0 0 0 0 0 127 0" result="hardAlpha"/>
<feOffset dy="3.79303"/>
<feGaussianBlur stdDeviation="1.89652"/>
<feComposite in2="hardAlpha" operator="out"/>
<feColorMatrix type="matrix" values="0 0 0 0 0 0 0 0 0 0 0 0 0 0 0 0 0 0 0.25 0"/>
<feBlend mode="normal" in2="BackgroundImageFix" result="effect1_dropShadow_2074_3910"/>
<feBlend mode="normal" in="SourceGraphic" in2="effect1_dropShadow_2074_3910" result="shape"/>
</filter>
</defs>
</svg>
