<svg width="23" height="22" viewBox="0 0 23 22" fill="none" xmlns="http://www.w3.org/2000/svg">
<path d="M2.31836 11.6875C2.31836 12.0435 2.60693 12.332 2.96289 12.332C3.31885 12.332 3.60742 12.0435 3.60742 11.6875H2.31836ZM3.82002 15.1626C3.6838 14.8338 3.30677 14.6776 2.9779 14.8138C2.64904 14.95 2.49286 15.327 2.62908 15.6559L3.82002 15.1626ZM14.0045 6.62916C14.3531 6.70111 14.694 6.47681 14.766 6.1282C14.8379 5.77958 14.6136 5.43865 14.265 5.36671L14.0045 6.62916ZM17.1899 8.29162C17.118 7.94299 16.7771 7.7187 16.4284 7.79065C16.0798 7.86259 15.8556 8.20352 15.9275 8.55214L17.1899 8.29162ZM11.1396 19.5011L11.3626 19.1244L10.2532 18.4679L10.0303 18.8446L11.1396 19.5011ZM8.31318 19.1244L8.53613 19.5011L9.64544 18.8446L9.42249 18.4679L8.31318 19.1244ZM10.0303 18.8446C9.99129 18.9105 9.92314 18.9492 9.83787 18.9492C9.75259 18.9492 9.68447 18.9105 9.64544 18.8446L8.53613 19.5011C9.11788 20.484 10.5579 20.484 11.1396 19.5011L10.0303 18.8446ZM8.80664 6.48829H10.8691V5.19922H8.80664V6.48829ZM16.0684 11.6875V12.375H17.3574V11.6875H16.0684ZM6.66962 16.8742C5.98877 16.8523 5.61876 16.7931 5.33157 16.6742L4.83826 17.8651C5.3512 18.0776 5.91694 18.1398 6.62841 18.1626L6.66962 16.8742ZM2.62908 15.6559C3.04339 16.6562 3.83805 17.4508 4.83826 17.8651L5.33157 16.6742C4.64721 16.3907 4.1035 15.847 3.82002 15.1626L2.62908 15.6559ZM16.0684 12.375C16.0684 13.1847 16.068 13.7596 16.0372 14.212C16.0067 14.6586 15.9486 14.9383 15.8558 15.1626L17.0467 15.6559C17.2155 15.2484 17.2882 14.8119 17.3232 14.2997C17.3578 13.7933 17.3574 13.1671 17.3574 12.375H16.0684ZM13.0473 18.1626C13.7588 18.1398 14.3246 18.0776 14.8375 17.8651L14.3442 16.6742C14.057 16.7931 13.687 16.8523 13.0061 16.8742L13.0473 18.1626ZM15.8558 15.1626C15.5723 15.847 15.0286 16.3907 14.3442 16.6742L14.8375 17.8651C15.8377 17.4508 16.6324 16.6562 17.0467 15.6559L15.8558 15.1626ZM8.80664 5.19922C7.69388 5.19922 6.81405 5.19854 6.11052 5.26544C5.39739 5.33324 4.79913 5.47499 4.26753 5.80075L4.94107 6.89986C5.23608 6.71907 5.61376 6.60754 6.23253 6.54871C6.86089 6.48896 7.66892 6.48829 8.80664 6.48829V5.19922ZM3.60742 11.6875C3.60742 10.5498 3.6081 9.74179 3.66784 9.1134C3.72668 8.49463 3.83821 8.11696 4.01899 7.82194L2.91989 7.14841C2.59412 7.68001 2.45238 8.27826 2.38457 8.99139C2.31768 9.69496 2.31836 10.5748 2.31836 11.6875H3.60742ZM4.26753 5.80075C3.71827 6.13734 3.25647 6.59915 2.91989 7.14841L4.01899 7.82194C4.24929 7.44613 4.56526 7.13015 4.94107 6.89986L4.26753 5.80075ZM9.42249 18.4679C9.24993 18.1763 9.09856 17.9193 8.95177 17.7172C8.79733 17.5046 8.62039 17.3125 8.37542 17.1676L7.71913 18.2771C7.75875 18.3005 7.81344 18.3434 7.9088 18.4748C8.01181 18.6166 8.12843 18.8123 8.31318 19.1244L9.42249 18.4679ZM6.62841 18.1626C7.01122 18.1748 7.25592 18.1833 7.4418 18.2059C7.61753 18.2273 7.68348 18.256 7.71913 18.2771L8.37542 17.1676C8.12647 17.0204 7.86452 16.9588 7.59788 16.9263C7.34139 16.8951 7.02926 16.8857 6.66962 16.8742L6.62841 18.1626ZM11.3626 19.1244C11.5473 18.8123 11.664 18.6166 11.7669 18.4748C11.8623 18.3434 11.917 18.3005 11.9566 18.2771L11.3004 17.1676C11.0554 17.3125 10.8784 17.5046 10.724 17.7172C10.5772 17.9193 10.4258 18.1763 10.2532 18.4679L11.3626 19.1244ZM13.0061 16.8742C12.6465 16.8857 12.3344 16.8951 12.0779 16.9263C11.8113 16.9588 11.5492 17.0204 11.3004 17.1676L11.9566 18.2771C11.9923 18.256 12.0583 18.2273 12.2339 18.2059C12.4198 18.1833 12.6645 18.1748 13.0473 18.1626L13.0061 16.8742ZM10.8691 6.48829C12.4141 6.48829 13.3379 6.4916 14.0045 6.62916L14.265 5.36671C13.4374 5.19591 12.3518 5.19922 10.8691 5.19922V6.48829ZM17.3574 11.6875C17.3574 10.2048 17.3608 9.11925 17.1899 8.29162L15.9275 8.55214C16.065 9.21875 16.0684 10.1425 16.0684 11.6875H17.3574Z" fill="white"/>
<path d="M7.28711 5.84375C7.33146 4.99114 7.44463 4.41635 7.73343 3.94508C7.99915 3.51145 8.36373 3.14687 8.79736 2.88114C9.57231 2.40625 10.6272 2.40625 12.737 2.40625H14.6706C15.9838 2.40625 16.8884 2.40625 17.5711 2.52076M16.7117 13.3506C17.3543 13.3293 17.7882 13.2719 18.1597 13.118C18.9494 12.7909 19.5768 12.1636 19.9039 11.3739C20.1491 10.7817 20.1491 10.0309 20.1491 8.52932V7.88479C20.1491 6.5716 20.1491 5.66708 20.0346 4.98438" stroke="white" stroke-width="1.375" stroke-linecap="round"/>
<path d="M6.83789 11.8594H6.84562M9.83773 11.8594H9.84546M12.8378 11.8594H12.8455" stroke="white" stroke-width="1.375" stroke-linecap="round" stroke-linejoin="round"/>
</svg>
