<svg width="23" height="23" viewBox="0 0 23 23" fill="none" xmlns="http://www.w3.org/2000/svg">
<g clip-path="url(#clip0_2130_8079)">
<path d="M20.4566 11.7582C20.4566 14.4172 20.4566 15.7467 19.6305 16.5728C19.0276 17.1757 18.1566 17.3386 16.6961 17.3826M5.41475 17.3826C3.95433 17.3386 3.08318 17.1757 2.48033 16.5728C1.6543 15.7467 1.6543 14.4172 1.6543 11.7582C1.6543 9.09912 1.6543 7.76958 2.48033 6.94355C3.30636 6.11743 4.6359 6.11743 7.29498 6.11743H14.8159C17.475 6.11743 18.8044 6.11743 19.6305 6.94355C19.9123 7.22542 20.098 7.56582 20.2203 7.99774" stroke="white" stroke-width="1.375" stroke-linecap="round"/>
<path d="M8.23631 9.87793H5.41602" stroke="white" stroke-width="1.375" stroke-linecap="round"/>
<path d="M17.6382 14.5785H4.47656" stroke="white" stroke-width="1.375" stroke-linecap="round"/>
<path d="M16.6811 6.11739C16.6371 4.65696 16.4742 3.7859 15.8713 3.18305C15.0452 2.35693 13.7157 2.35693 11.0567 2.35693C8.39762 2.35693 7.06808 2.35693 6.24205 3.18305C5.6392 3.7859 5.47626 4.65705 5.43226 6.11747M16.6974 14.5784V15.5186C16.6974 18.1776 16.6974 19.5071 15.8713 20.3332C15.2684 20.9361 14.3974 21.099 12.9369 21.143M5.41602 14.5784V15.5186C5.41602 18.1776 5.41602 19.5071 6.24205 20.3332C6.84498 20.9361 7.71605 21.099 9.17647 21.143" stroke="white" stroke-width="1.375" stroke-linecap="round"/>
<path d="M14.8164 9.87795C14.8164 10.6016 15.5998 11.0539 16.2266 10.692C16.5175 10.5241 16.6966 10.2138 16.6966 9.87795C16.6966 9.15418 15.9132 8.70189 15.2865 9.06378C14.9956 9.2317 14.8164 9.54202 14.8164 9.87795Z" fill="white"/>
</g>
<defs>
<clipPath id="clip0_2130_8079">
<rect width="22" height="22" fill="white" transform="translate(0.0566406 0.75)"/>
</clipPath>
</defs>
</svg>
