<svg width="30" height="31" viewBox="0 0 30 31" fill="none" xmlns="http://www.w3.org/2000/svg">
<path d="M14.9983 10.3721V20.6279M14.9983 20.6279L18.8443 16.7821M14.9983 20.6279L11.1523 16.7821" stroke="#D74120" stroke-width="1.875" stroke-linecap="round" stroke-linejoin="round"/>
<path d="M27.8191 15.5C27.8191 9.45673 27.8191 6.43505 25.9417 4.55771C24.0645 2.68025 21.0427 2.68025 14.9994 2.68025C8.95605 2.68025 5.93449 2.68025 4.05703 4.55771C2.17969 6.43494 2.17969 9.45673 2.17969 15.5C2.17969 21.5433 2.17969 24.5649 4.05703 26.4424C5.93449 28.3197 8.95605 28.3197 14.9994 28.3197C21.0427 28.3197 24.0643 28.3197 25.9417 26.4424C27.1901 25.194 27.6084 23.4398 27.7486 20.6279" stroke="#D74120" stroke-width="1.875" stroke-linecap="round"/>
</svg>
