<svg width="30" height="31" viewBox="0 0 30 31" fill="none" xmlns="http://www.w3.org/2000/svg">
<path d="M14.9983 20.6279V10.3721M14.9983 10.3721L18.8443 14.2179M14.9983 10.3721L11.1523 14.2179" stroke="#7F6145" stroke-width="1.875" stroke-linecap="round" stroke-linejoin="round"/>
<path d="M27.8191 15.5C27.8191 21.5433 27.8191 24.5649 25.9417 26.4423C24.0645 28.3198 21.0427 28.3198 14.9994 28.3198C8.95605 28.3198 5.93449 28.3198 4.05703 26.4423C2.17969 24.5651 2.17969 21.5433 2.17969 15.5C2.17969 9.45666 2.17969 6.4351 4.05703 4.55764C5.93449 2.6803 8.95605 2.6803 14.9994 2.6803C21.0427 2.6803 24.0643 2.6803 25.9417 4.55764C27.1901 5.80604 27.6084 7.56022 27.7486 10.3721" stroke="#7F6145" stroke-width="1.875" stroke-linecap="round"/>
</svg>
