<svg width="21" height="20" viewBox="0 0 21 20" fill="none" xmlns="http://www.w3.org/2000/svg">
<path d="M3.91406 9.21875V11.5625C3.91406 14.5087 3.91406 15.982 4.82935 16.8972C5.74465 17.8125 7.21778 17.8125 10.1641 17.8125H10.9453C13.8916 17.8125 15.3648 17.8125 16.28 16.8972M17.1953 9.21875V11.5625C17.1953 12.4764 17.1953 13.2485 17.168 13.9062" stroke="#313131" stroke-width="1.25" stroke-linecap="round"/>
<path d="M8.60245 2.1875H12.5087M8.60245 2.1875L8.09328 7.2792C7.94761 8.73594 9.09157 10 10.5556 10C12.0196 10 13.1635 8.73594 13.0179 7.2792L12.5087 2.1875M8.60245 2.1875H6.97564C6.26625 2.1875 5.91155 2.1875 5.60734 2.2709C4.96633 2.44662 4.43007 2.88624 4.13205 3.48034M8.60245 2.1875L8.03641 7.84787C7.91424 9.06961 6.88617 10 5.65833 10C4.15017 10 3.01903 8.62023 3.3148 7.14135L3.36807 6.875M12.5087 2.1875H14.1355C14.8449 2.1875 15.1996 2.1875 15.5038 2.2709C16.1448 2.44662 16.6811 2.88624 16.9791 3.48034C17.1206 3.76229 17.1901 4.1101 17.3292 4.80573L17.7963 7.14135C18.0921 8.62023 16.961 10 15.4528 10C14.225 10 13.1969 9.06961 13.0747 7.84787L12.5087 2.1875Z" stroke="#313131" stroke-width="1.25" stroke-linecap="round"/>
<path d="M8.60156 17.4219V15.0781C8.60156 14.348 8.60156 13.9829 8.75856 13.7109C8.86141 13.5328 9.00937 13.3848 9.1875 13.282C9.45945 13.125 9.82453 13.125 10.5547 13.125C11.2848 13.125 11.6499 13.125 11.9219 13.282C12.1 13.3848 12.248 13.5328 12.3508 13.7109C12.5078 13.9829 12.5078 14.348 12.5078 15.0781V17.4219" stroke="#313131" stroke-width="1.25" stroke-linecap="round"/>
</svg>
