<svg width="25" height="24" viewBox="0 0 25 24" fill="none" xmlns="http://www.w3.org/2000/svg">
<path d="M4.47412 11.0625V13.875C4.47412 17.4105 4.47412 19.1783 5.57247 20.2766C6.67082 21.375 8.43858 21.375 11.9741 21.375H12.9116C16.4471 21.375 18.215 21.375 19.3132 20.2766M20.4116 11.0625V13.875C20.4116 14.9717 20.4116 15.8982 20.3788 16.6875" stroke="white" stroke-width="1.5" stroke-linecap="round"/>
<path d="M10.0991 2.625H14.7866M10.0991 2.625L9.4881 8.73503C9.3133 10.4831 10.6861 12 12.4428 12C14.1997 12 15.5724 10.4831 15.3977 8.73503L14.7866 2.625M10.0991 2.625H8.14695C7.29568 2.625 6.87003 2.625 6.50498 2.72508C5.73577 2.93595 5.09226 3.46349 4.73463 4.17641M10.0991 2.625L9.41986 9.41744C9.27326 10.8835 8.03957 12 6.56617 12C4.75637 12 3.399 10.3443 3.75393 8.56962L3.81786 8.25M14.7866 2.625H16.7387C17.5901 2.625 18.0157 2.625 18.3808 2.72508C19.1499 2.93595 19.7935 3.46349 20.1511 4.17641C20.3208 4.51475 20.4043 4.93212 20.5712 5.76687L21.1318 8.56962C21.4867 10.3443 20.1293 12 18.3196 12C16.8462 12 15.6124 10.8835 15.4658 9.41744L14.7866 2.625Z" stroke="white" stroke-width="1.5" stroke-linecap="round"/>
<path d="M10.0991 20.9063V18.0938C10.0991 17.2176 10.0991 16.7795 10.2875 16.4531C10.4109 16.2394 10.5885 16.0618 10.8022 15.9384C11.1286 15.75 11.5667 15.75 12.4429 15.75C13.3191 15.75 13.7572 15.75 14.0835 15.9384C14.2972 16.0618 14.4748 16.2394 14.5982 16.4531C14.7866 16.7795 14.7866 17.2176 14.7866 18.0938V20.9063" stroke="white" stroke-width="1.5" stroke-linecap="round"/>
</svg>
