<svg width="17" height="16" viewBox="0 0 17 16" fill="none" xmlns="http://www.w3.org/2000/svg">
<path d="M11.9753 10.0512H8.55664" stroke="#465045" stroke-linecap="round"/>
<path d="M5.13867 6.63257L5.29892 6.76607C6.17523 7.49638 6.61342 7.86151 6.61342 8.34188C6.61342 8.82226 6.17523 9.18732 5.29892 9.91763L5.13867 10.0512" stroke="#465045" stroke-linecap="round"/>
<path d="M15.3931 8.00003C15.3931 11.2231 15.3931 12.8347 14.3918 13.8359C13.3906 14.8372 11.779 14.8372 8.55594 14.8372C5.33281 14.8372 3.72131 14.8372 2.72 13.8359C1.71875 12.8347 1.71875 11.2231 1.71875 8.00003C1.71875 4.7769 1.71875 3.1654 2.72 2.16409C3.72131 1.16284 5.33281 1.16284 8.55594 1.16284C11.779 1.16284 13.3906 1.16284 14.3918 2.16409C15.0576 2.8299 15.2808 3.76547 15.3555 5.26515" stroke="#465045" stroke-linecap="round"/>
</svg>
