<svg width="216" height="157" viewBox="0 0 216 157" fill="none" xmlns="http://www.w3.org/2000/svg">
<rect x="43" y="23" width="134" height="134" rx="67" fill="#7F6145" fill-opacity="0.1"/>
<path d="M95.6421 92.0513L103.847 100.256L124.358 79.7441" stroke="#465045" stroke-width="6" stroke-linecap="round" stroke-linejoin="round"/>
<path d="M89.4882 54.4651C95.5223 50.9746 102.528 48.9769 110 48.9769C132.656 48.9769 151.023 67.3437 151.023 90.0001C151.023 112.656 132.656 131.023 110 131.023C87.3436 131.023 68.9768 112.656 68.9768 90.0001C68.9768 82.5282 70.9744 75.5224 74.4649 69.4883" stroke="#465045" stroke-width="6" stroke-linecap="round"/>
<path d="M167.519 1.7147C167.655 1.22823 168.345 1.22823 168.481 1.7147L169.897 6.75683C169.944 6.92472 170.075 7.05593 170.243 7.10307L175.285 8.51861C175.772 8.65518 175.772 9.34482 175.285 9.48139L170.243 10.8969C170.075 10.9441 169.944 11.0753 169.897 11.2432L168.481 16.2853C168.345 16.7718 167.655 16.7718 167.519 16.2853L166.103 11.2432C166.056 11.0753 165.925 10.9441 165.757 10.8969L160.715 9.48139C160.228 9.34482 160.228 8.65518 160.715 8.51861L165.757 7.10307C165.925 7.05593 166.056 6.92472 166.103 6.75683L167.519 1.7147Z" fill="#465045"/>
<path d="M9.51861 57.7147C9.65518 57.2282 10.3448 57.2282 10.4814 57.7147L12.1161 63.5376C12.1633 63.7055 12.2945 63.8367 12.4624 63.8839L18.2853 65.5186C18.7718 65.6552 18.7718 66.3448 18.2853 66.4814L12.4624 68.1161C12.2945 68.1633 12.1633 68.2945 12.1161 68.4624L10.4814 74.2853C10.3448 74.7718 9.65518 74.7718 9.51861 74.2853L7.88387 68.4624C7.83673 68.2945 7.70552 68.1633 7.53762 68.1161L1.7147 66.4814C1.22823 66.3448 1.22823 65.6552 1.7147 65.5186L7.53762 63.8839C7.70552 63.8367 7.83673 63.7055 7.88387 63.5376L9.51861 57.7147Z" fill="#465045"/>
<path d="M203.519 108.715C203.655 108.228 204.345 108.228 204.481 108.715L206.555 116.099C206.602 116.267 206.733 116.398 206.901 116.445L214.285 118.519C214.772 118.655 214.772 119.345 214.285 119.481L206.901 121.555C206.733 121.602 206.602 121.733 206.555 121.901L204.481 129.285C204.345 129.772 203.655 129.772 203.519 129.285L201.445 121.901C201.398 121.733 201.267 121.602 201.099 121.555L193.715 119.481C193.228 119.345 193.228 118.655 193.715 118.519L201.099 116.445C201.267 116.398 201.398 116.267 201.445 116.099L203.519 108.715Z" fill="#465045"/>
</svg>
