<svg width="40" height="40" viewBox="0 0 40 40" fill="none" xmlns="http://www.w3.org/2000/svg">
<rect x="0.4" y="0.4" width="39.2" height="39.2" rx="19.6" stroke="#9D9D9D" stroke-opacity="0.2" stroke-width="0.8"/>
<path d="M20 13C16.1401 13 13 16.1401 13 20C13 23.8599 16.1401 27 20 27C23.8599 27 27 23.8599 27 20C27 16.1401 23.8599 13 20 13ZM22.3333 20.5833H20C19.8453 20.5833 19.6969 20.5219 19.5875 20.4125C19.4781 20.3031 19.4167 20.1547 19.4167 20V16.5C19.4167 16.3453 19.4781 16.1969 19.5875 16.0875C19.6969 15.9781 19.8453 15.9167 20 15.9167C20.1547 15.9167 20.3031 15.9781 20.4125 16.0875C20.5219 16.1969 20.5833 16.3453 20.5833 16.5V19.4167H22.3333C22.488 19.4167 22.6364 19.4781 22.7458 19.5875C22.8552 19.6969 22.9167 19.8453 22.9167 20C22.9167 20.1547 22.8552 20.3031 22.7458 20.4125C22.6364 20.5219 22.488 20.5833 22.3333 20.5833Z" fill="#313131"/>
<path d="M20 13C16.1401 13 13 16.1401 13 20C13 23.8599 16.1401 27 20 27C23.8599 27 27 23.8599 27 20C27 16.1401 23.8599 13 20 13ZM22.3333 20.5833H20C19.8453 20.5833 19.6969 20.5219 19.5875 20.4125C19.4781 20.3031 19.4167 20.1547 19.4167 20V16.5C19.4167 16.3453 19.4781 16.1969 19.5875 16.0875C19.6969 15.9781 19.8453 15.9167 20 15.9167C20.1547 15.9167 20.3031 15.9781 20.4125 16.0875C20.5219 16.1969 20.5833 16.3453 20.5833 16.5V19.4167H22.3333C22.488 19.4167 22.6364 19.4781 22.7458 19.5875C22.8552 19.6969 22.9167 19.8453 22.9167 20C22.9167 20.1547 22.8552 20.3031 22.7458 20.4125C22.6364 20.5219 22.488 20.5833 22.3333 20.5833Z" fill="black" fill-opacity="0.2"/>
<path d="M20 13C16.1401 13 13 16.1401 13 20C13 23.8599 16.1401 27 20 27C23.8599 27 27 23.8599 27 20C27 16.1401 23.8599 13 20 13ZM22.3333 20.5833H20C19.8453 20.5833 19.6969 20.5219 19.5875 20.4125C19.4781 20.3031 19.4167 20.1547 19.4167 20V16.5C19.4167 16.3453 19.4781 16.1969 19.5875 16.0875C19.6969 15.9781 19.8453 15.9167 20 15.9167C20.1547 15.9167 20.3031 15.9781 20.4125 16.0875C20.5219 16.1969 20.5833 16.3453 20.5833 16.5V19.4167H22.3333C22.488 19.4167 22.6364 19.4781 22.7458 19.5875C22.8552 19.6969 22.9167 19.8453 22.9167 20C22.9167 20.1547 22.8552 20.3031 22.7458 20.4125C22.6364 20.5219 22.488 20.5833 22.3333 20.5833Z" fill="black" fill-opacity="0.2"/>
</svg>
