<svg width="23" height="22" viewBox="0 0 23 22" fill="none" xmlns="http://www.w3.org/2000/svg">
<path d="M11.5566 15.7006V16.6406" stroke="white" stroke-width="1.375" stroke-linecap="round"/>
<path d="M11.5566 5.35925V6.29932" stroke="white" stroke-width="1.375" stroke-linecap="round"/>
<path d="M14.3771 8.64962C14.3771 7.35162 13.1144 6.29932 11.5567 6.29932C9.99901 6.29932 8.73633 7.35162 8.73633 8.64962C8.73633 9.94762 9.99901 10.9999 11.5567 10.9999C13.1144 10.9999 14.3771 12.0522 14.3771 13.3502C14.3771 14.6482 13.1144 15.7005 11.5567 15.7005C9.99901 15.7005 8.73633 14.6482 8.73633 13.3502" stroke="white" stroke-width="1.375" stroke-linecap="round"/>
<path d="M6.85482 2.85657C8.23764 2.05667 9.84312 1.59888 11.5554 1.59888C16.7475 1.59888 20.9566 5.80792 20.9566 11C20.9566 16.1921 16.7475 20.4011 11.5554 20.4011C6.36334 20.4011 2.1543 16.1921 2.1543 11C2.1543 9.28771 2.61209 7.68222 3.41199 6.2994" stroke="white" stroke-width="1.375" stroke-linecap="round"/>
</svg>
