<svg width="17" height="16" viewBox="0 0 17 16" fill="none" xmlns="http://www.w3.org/2000/svg">
<path d="M14.7093 4.58134V4.15066C14.7093 3.33497 14.7093 2.92716 14.6013 2.59822C14.3965 1.97447 13.9208 1.48478 13.315 1.27397C12.9955 1.16278 12.5993 1.16278 11.8069 1.16278H5.30478C4.51241 1.16278 4.11628 1.16278 3.79672 1.27391C3.19084 1.48478 2.71516 1.97447 2.51034 2.59822C2.40234 2.92716 2.40234 3.33497 2.40234 4.15066V10.0511M14.7093 7.31622V13.7256C14.7093 14.3123 14.0358 14.6237 13.6098 14.2338C13.3595 14.0048 12.9824 14.0048 12.7321 14.2338L12.4018 14.5361C11.9631 14.9375 11.3021 14.9375 10.8634 14.5361C10.4247 14.1347 9.76372 14.1347 9.32503 14.5361C8.88634 14.9375 8.22534 14.9375 7.78666 14.5361C7.34797 14.1347 6.68697 14.1347 6.24828 14.5361C5.80966 14.9375 5.14859 14.9375 4.70991 14.5361L4.37959 14.2338C4.12934 14.0048 3.75216 14.0048 3.50184 14.2338C3.07584 14.6237 2.40234 14.3123 2.40234 13.7256V12.786" stroke="#313131" stroke-linecap="round"/>
<path d="M6.84766 6.90601L7.82441 7.99995L10.2663 5.26508" stroke="#313131" stroke-linecap="round" stroke-linejoin="round"/>
<path d="M5.48047 10.393H6.50603M11.634 10.393H8.55722" stroke="#313131" stroke-linecap="round"/>
</svg>
