<svg width="61" height="60" viewBox="0 0 61 60" fill="none" xmlns="http://www.w3.org/2000/svg">
<path d="M56.1388 33.4689C56.1388 40.4095 51.197 46.2098 44.601 47.6203M15.8481 47.9479C9.77939 47.9479 4.85986 43.086 4.85986 37.0889C4.85986 31.0914 9.77939 26.2296 15.8481 26.2296C16.5765 26.2296 17.2885 26.2996 17.9774 26.4335M17.9774 26.4335C17.39 24.8667 17.0692 23.1721 17.0692 21.4033C17.0692 13.4069 23.6286 6.92456 31.7202 6.92456C39.2574 6.92456 45.4653 12.5491 46.2807 19.7828M17.9774 26.4335C19.4246 26.7142 20.7699 27.2758 21.9528 28.0582M36.6041 19.814C38.1315 19.2806 39.7752 18.9902 41.4878 18.9902C43.1663 18.9902 44.7788 19.2691 46.2807 19.7828M46.2807 19.7828C48.032 20.3817 49.6323 21.2992 51.0109 22.4657" stroke="#465045" stroke-width="3.75" stroke-linecap="round"/>
<path d="M35.6269 47.9476H30.499M30.499 47.9476H25.3711M30.499 47.9476V42.8197M30.499 47.9476V53.0755" stroke="#465045" stroke-width="3.75" stroke-linecap="round"/>
</svg>
