<svg width="26" height="25" viewBox="0 0 26 25" fill="none" xmlns="http://www.w3.org/2000/svg">
<path d="M19.7243 7.68642C19.5359 7.63267 19.3639 7.53266 19.224 7.39549C19.0841 7.25831 18.9807 7.08833 18.9233 6.90101C18.6043 5.8198 18.0693 4.81456 17.3505 3.9461C16.6318 3.07765 15.7444 2.36404 14.7419 1.84846C13.7395 1.33288 12.6428 1.02605 11.5184 0.946539C10.3939 0.867024 9.26498 1.01648 8.19993 1.38586C7.13489 1.75524 6.15587 2.33686 5.3221 3.09553C4.48833 3.85421 3.81716 4.77415 3.34919 5.79971C2.88122 6.82526 2.6262 7.9351 2.59954 9.06206C2.57289 10.189 2.77516 11.3097 3.19411 12.3562C3.29036 12.5765 3.31108 12.8223 3.25305 13.0556C3.19502 13.2888 3.0615 13.4963 2.87328 13.6458C2.04383 14.2614 1.39624 15.0898 0.99906 16.0434C0.601879 16.9969 0.469878 18.0401 0.617028 19.0625C0.846667 20.4446 1.56424 21.6987 2.63951 22.5969C3.71478 23.4952 5.07647 23.9782 6.47745 23.9583H12.016C12.2923 23.9583 12.5572 23.8485 12.7526 23.6532C12.9479 23.4578 13.0577 23.1929 13.0577 22.9166C13.0577 22.6404 12.9479 22.3754 12.7526 22.1801C12.5572 21.9847 12.2923 21.875 12.016 21.875H6.47745C5.57774 21.8968 4.69997 21.5956 4.00324 21.0259C3.3065 20.4563 2.8369 19.6559 2.67953 18.7698C2.57973 18.1184 2.66061 17.4522 2.91335 16.8437C3.16609 16.2352 3.581 15.7077 4.11286 15.3187C4.67153 14.9012 5.07566 14.3099 5.26175 13.6377C5.44785 12.9655 5.40537 12.2506 5.14099 11.6052C4.61823 10.2247 4.59135 8.7054 5.06495 7.30726C5.44328 6.21202 6.12076 5.24463 7.02066 4.51466C7.92056 3.78469 9.00689 3.32132 10.1566 3.17705C10.4233 3.14271 10.6919 3.12532 10.9608 3.12496C12.3077 3.12052 13.6198 3.5525 14.7007 4.35621C15.7816 5.15992 16.5731 6.29212 16.9566 7.5833C17.1063 8.07535 17.3761 8.52243 17.7416 8.88429C18.1071 9.24615 18.5568 9.51142 19.0504 9.65621C20.2582 10.0134 21.328 10.7311 22.1167 11.7131C22.9054 12.6951 23.3753 13.8947 23.4634 15.1511C23.5516 16.4075 23.2538 17.6609 22.6099 18.7434C21.9661 19.8259 21.0069 20.686 19.8608 21.2083C19.6912 21.2951 19.5494 21.4279 19.4516 21.5915C19.3538 21.755 19.3039 21.9428 19.3077 22.1333C19.3056 22.3057 19.3469 22.4758 19.4278 22.628C19.5086 22.7803 19.6264 22.9098 19.7703 23.0047C19.9142 23.0995 20.0797 23.1567 20.2515 23.171C20.4233 23.1853 20.5959 23.1562 20.7535 23.0864C25.0597 21.0166 27.3993 15.5718 23.7535 10.3114C22.7496 9.00196 21.3277 8.07561 19.7243 7.68642Z" fill="white"/>
<path d="M20.0446 17.4032C20.2399 17.2079 20.3496 16.943 20.3496 16.6668C20.3496 16.3906 20.2399 16.1257 20.0446 15.9303L18.3925 14.2782C17.8065 13.6924 17.0118 13.3633 16.1832 13.3633C15.3545 13.3633 14.5598 13.6924 13.9738 14.2782L12.3217 15.9303C12.132 16.1268 12.027 16.3899 12.0293 16.663C12.0317 16.9362 12.1413 17.1974 12.3344 17.3905C12.5275 17.5837 12.7888 17.6932 13.0619 17.6956C13.335 17.698 13.5982 17.593 13.7946 17.4032L15.1415 16.0564V23.9584C15.1415 24.2347 15.2512 24.4997 15.4466 24.695C15.6419 24.8904 15.9069 25.0001 16.1832 25.0001C16.4594 25.0001 16.7244 24.8904 16.9197 24.695C17.1151 24.4997 17.2248 24.2347 17.2248 23.9584V16.0564L18.5717 17.4032C18.767 17.5985 19.032 17.7082 19.3082 17.7082C19.5844 17.7082 19.8493 17.5985 20.0446 17.4032Z" fill="white"/>
</svg>
