<svg width="20" height="20" viewBox="0 0 20 20" fill="none" xmlns="http://www.w3.org/2000/svg">
<path d="M7.43599 3.55565C8.21505 3.30784 9.06873 3.16284 9.99998 3.16284C13.574 3.16284 16.0065 5.29909 17.4569 7.18339C18.1833 8.12706 18.5465 8.59894 18.5465 10C18.5465 11.4011 18.1833 11.873 17.4569 12.8167C16.0065 14.701 13.574 16.8372 9.99998 16.8372C6.42591 16.8372 3.99341 14.701 2.54302 12.8167C1.81662 11.873 1.45349 11.4011 1.45349 10C1.45349 8.59894 1.81669 8.12706 2.54302 7.18339C2.95435 6.64909 3.44458 6.09448 4.0174 5.57409" stroke="#465045" stroke-width="1.25" stroke-linecap="round"/>
<path d="M12.5641 10C12.5641 11.4161 11.4162 12.564 10.0001 12.564C8.58399 12.564 7.4361 11.4161 7.4361 10C7.4361 8.58393 8.58399 7.43604 10.0001 7.43604C11.4162 7.43604 12.5641 8.58393 12.5641 10Z" stroke="#465045" stroke-width="1.25"/>
</svg>
