<svg width="30" height="31" viewBox="0 0 30 31" fill="none" xmlns="http://www.w3.org/2000/svg">
<path d="M21.4121 15.5C21.4121 16.4868 22.4804 17.1037 23.335 16.6102C23.7317 16.3812 23.9761 15.9579 23.9761 15.5C23.9761 14.5131 22.9077 13.8963 22.053 14.3897C21.6564 14.6187 21.4121 15.042 21.4121 15.5Z" fill="#419400"/>
<path d="M27.8214 13.5771C27.8214 13.4778 27.8214 12.8941 27.8185 12.8522C27.7731 12.2102 27.2225 11.6989 26.5312 11.6569C26.4861 11.6541 26.4327 11.6541 26.3257 11.6541H22.9894C20.702 11.6541 18.8477 13.3759 18.8477 15.5C18.8477 17.6242 20.702 19.346 22.9894 19.346H26.3257C26.4326 19.346 26.4859 19.346 26.5312 19.3433C27.2225 19.3011 27.7731 18.7898 27.8185 18.1478C27.8214 18.1059 27.8185 17.5222 27.8185 17.423" stroke="#419400" stroke-width="1.875" stroke-linecap="round"/>
<path d="M16.2834 5.24414C21.118 5.24414 23.5353 5.24414 25.0372 6.74602C26.0732 7.78207 26.3947 9.25371 26.4943 11.6539M12.4374 25.7557H16.2833C21.118 25.7557 23.5353 25.7557 25.0372 24.2537C26.0732 23.2178 26.3947 21.7461 26.4943 19.3459M11.1554 5.24531C7.16293 5.25703 5.04641 5.38312 3.68352 6.74602C2.18164 8.24801 2.18164 10.6652 2.18164 15.4999C2.18164 20.3345 2.18164 22.752 3.68352 24.2537C4.52094 25.0911 5.64277 25.4617 7.30953 25.6256" stroke="#419400" stroke-width="1.875" stroke-linecap="round"/>
<path d="M8.5918 11.6541V12.9361M8.5918 19.346V16.141" stroke="#419400" stroke-width="1.875" stroke-linecap="round"/>
</svg>
