<?xml version="1.0" standalone="no"?>
<svg id="Icon8" width="25" height="24" viewBox="0 0 25 24" fill="none" xmlns="http://www.w3.org/2000/svg" style="max-width: 100%; max-height: 100%;">
<g clip-path="url(#clip0_2271_4486)">
<rect width="24.2222" height="24" transform="translate(0.555664)" fill="#465045" stroke-dasharray="0,0,0,96.44439697265625"><animate attributeType="XML" attributeName="stroke-dasharray" repeatCount="1" dur="2.5s" values="0,0,0,96.44439697265625; 
          0,48.222198486328125,48.222198486328125,0; 
          96.44439697265625,0,0,0" keyTimes="0; 0.5; 1" fill="freeze"></animate></rect>
<path d="M4.03125 11.0625L4.03125 13.875C4.03125 17.4105 4.03125 19.1783 5.1296 20.2766C6.22795 21.375 7.99571 21.375 11.5313 21.375H12.4688C16.0043 21.375 17.7721 21.375 18.8704 20.2766M19.9688 11.0625L19.9688 13.875C19.9688 14.9717 19.9688 15.8982 19.9359 16.6875" stroke="white" stroke-width="1.5" stroke-linecap="round" stroke-dasharray="0,0,0,29.31879234313965"><animate attributeType="XML" attributeName="stroke-dasharray" repeatCount="1" dur="2.5s" values="0,0,0,29.31879234313965; 
          0,14.659396171569824,14.659396171569824,0; 
          29.31879234313965,0,0,0" keyTimes="0; 0.5; 1" fill="freeze"></animate></path>
<path d="M9.65624 2.625L14.3437 2.625M9.65624 2.625L9.04523 8.73503C8.87043 10.4831 10.2432 12 12 12C13.7568 12 15.1295 10.4831 14.9548 8.73503L14.3437 2.625M9.65624 2.625L7.70407 2.625C6.85281 2.625 6.42716 2.625 6.06211 2.72508C5.2929 2.93595 4.64939 3.46349 4.29176 4.17641M9.65624 2.625L8.97699 9.41744C8.83039 10.8835 7.5967 12 6.1233 12C4.3135 12 2.95613 10.3443 3.31106 8.56962L3.37499 8.25M14.3437 2.625L16.2959 2.625C17.1472 2.625 17.5728 2.625 17.9379 2.72508C18.707 2.93595 19.3506 3.46349 19.7082 4.17641C19.878 4.51475 19.9614 4.93212 20.1284 5.76687L20.6889 8.56962C21.0438 10.3443 19.6864 12 17.8767 12C16.4033 12 15.1696 10.8835 15.0229 9.41744L14.3437 2.625Z" stroke="white" stroke-width="1.5" stroke-linecap="round" stroke-dasharray="0,0,0,75.88014221191406"><animate attributeType="XML" attributeName="stroke-dasharray" repeatCount="1" dur="2.5s" values="0,0,0,75.88014221191406; 
          0,37.94007110595703,37.94007110595703,0; 
          75.88014221191406,0,0,0" keyTimes="0; 0.5; 1" fill="freeze"></animate></path>
<path d="M9.65625 20.9063L9.65625 18.0938C9.65625 17.2176 9.65625 16.7795 9.84465 16.4531C9.96807 16.2394 10.1456 16.0618 10.3594 15.9384C10.6857 15.75 11.1238 15.75 12 15.75C12.8762 15.75 13.3143 15.75 13.6406 15.9384C13.8544 16.0618 14.0319 16.2394 14.1553 16.4531C14.3438 16.7795 14.3438 17.2176 14.3438 18.0938L14.3438 20.9063" stroke="white" stroke-width="1.5" stroke-linecap="round" stroke-dasharray="0,0,0,13.77013874053955"><animate attributeType="XML" attributeName="stroke-dasharray" repeatCount="1" dur="2.5s" values="0,0,0,13.77013874053955; 
          0,6.885069370269775,6.885069370269775,0; 
          13.77013874053955,0,0,0" keyTimes="0; 0.5; 1" fill="freeze"></animate></path>
</g>
<defs>
<clipPath id="clip0_2271_4486">
<rect width="24.2222" height="24" fill="white" transform="translate(0.555664)" stroke-dasharray="0,0,0,96.44439697265625"><animate attributeType="XML" attributeName="stroke-dasharray" repeatCount="1" dur="2.5s" values="0,0,0,96.44439697265625; 
          0,48.222198486328125,48.222198486328125,0; 
          96.44439697265625,0,0,0" keyTimes="0; 0.5; 1" fill="freeze"></animate></rect>
</clipPath>
</defs>
</svg>