<svg width="25" height="24" viewBox="0 0 25 24" fill="none" xmlns="http://www.w3.org/2000/svg">
<path d="M4.74854 11.0625L4.74854 13.875C4.74854 17.4105 4.74854 19.1783 5.84688 20.2766C6.94524 21.375 8.713 21.375 12.2485 21.375H13.186C16.7215 21.375 18.4894 21.375 19.5877 20.2766M20.686 11.0625L20.686 13.875C20.686 14.9717 20.686 15.8982 20.6532 16.6875" stroke="white" stroke-width="1.5" stroke-linecap="round"/>
<path d="M10.3735 2.625L15.061 2.625M10.3735 2.625L9.76252 8.73503C9.58771 10.4831 10.9605 12 12.7173 12C14.4741 12 15.8468 10.4831 15.6721 8.73503L15.061 2.625M10.3735 2.625L8.42136 2.625C7.57009 2.625 7.14445 2.625 6.77939 2.72508C6.01018 2.93595 5.36668 3.46349 5.00905 4.17641M10.3735 2.625L9.69428 9.41744C9.54767 10.8835 8.31399 12 6.84058 12C5.03079 12 3.67342 10.3443 4.02835 8.56962L4.09227 8.25M15.061 2.625L17.0132 2.625C17.8645 2.625 18.2901 2.625 18.6552 2.72508C19.4243 2.93595 20.0679 3.46349 20.4255 4.17641C20.5953 4.51475 20.6787 4.93212 20.8457 5.76687L21.4062 8.56962C21.7611 10.3443 20.4037 12 18.594 12C17.1206 12 15.8868 10.8835 15.7402 9.41744L15.061 2.625Z" stroke="white" stroke-width="1.5" stroke-linecap="round"/>
<path d="M10.3735 20.9063L10.3735 18.0938C10.3735 17.2176 10.3735 16.7795 10.5619 16.4531C10.6854 16.2394 10.8629 16.0618 11.0767 15.9384C11.403 15.75 11.8411 15.75 12.7173 15.75C13.5935 15.75 14.0316 15.75 14.3579 15.9384C14.5717 16.0618 14.7492 16.2394 14.8726 16.4531C15.061 16.7795 15.061 17.2176 15.061 18.0938L15.061 20.9063" stroke="white" stroke-width="1.5" stroke-linecap="round"/>
</svg>
