<svg width="24" height="20" viewBox="0 0 24 20" fill="none" xmlns="http://www.w3.org/2000/svg">
<path d="M5.31738 4.60001C5.31738 5.55501 5.69668 6.47 6.37178 7.146C7.04688 7.821 7.96258 8.20001 8.91738 8.20001C9.87218 8.20001 10.7878 7.821 11.463 7.146C12.1381 6.47 12.5174 5.55501 12.5174 4.60001C12.5174 3.64501 12.1381 2.72999 11.463 2.05399C10.7878 1.37899 9.87218 1 8.91738 1C7.96258 1 7.04688 1.37899 6.37178 2.05399C5.69668 2.72999 5.31738 3.64501 5.31738 4.60001Z" stroke="white" stroke-width="1.5"/>
<path d="M16.1173 14.95C16.1173 17.187 16.1173 19 8.91729 19C1.71729 19 1.71729 17.187 1.71729 14.95C1.71729 12.713 4.94079 10.9 8.91729 10.9C12.8938 10.9 16.1173 12.713 16.1173 14.95Z" stroke="white" stroke-width="1.5"/>
<path d="M14.7231 6.71201C14.7231 7.46301 15.0215 8.18299 15.5526 8.71399C16.0837 9.24499 16.8041 9.54401 17.5551 9.54401C18.3062 9.54401 19.0266 9.24499 19.5577 8.71399C20.0888 8.18299 20.3871 7.46301 20.3871 6.71201C20.3871 5.96101 20.0888 5.24001 19.5577 4.70901C19.0266 4.17801 18.3062 3.88 17.5551 3.88C16.8041 3.88 16.0837 4.17801 15.5526 4.70901C15.0215 5.24001 14.7231 5.96101 14.7231 6.71201Z" stroke="white" stroke-width="1.17998"/>
<path d="M17.5571 18.04C23.2211 18.04 23.2211 16.614 23.2211 14.854C23.2211 13.095 20.6853 11.668 17.5571 11.668" stroke="white" stroke-width="1.17998" stroke-linecap="round"/>
</svg>
