<?xml version="1.0" standalone="no"?>
<svg id="Icon4" width="25" height="24" viewBox="0 0 25 24" fill="none" xmlns="http://www.w3.org/2000/svg" style="max-width: 100%; max-height: 100%;">
<g clip-path="url(#clip0_2271_4432)">
<rect width="24.2222" height="24" transform="translate(0.666504)" fill="#465045" stroke-dasharray="0,0,0,96.44439697265625"><animate attributeType="XML" attributeName="stroke-dasharray" repeatCount="1" dur="2.5s" values="0,0,0,96.44439697265625; 
          0,48.222198486328125,48.222198486328125,0; 
          96.44439697265625,0,0,0" keyTimes="0; 0.5; 1" fill="freeze"></animate></rect>
<path d="M5.6001 6.6C5.6001 7.55478 5.97938 8.47045 6.65451 9.14558C7.32964 9.82072 8.24532 10.2 9.2001 10.2C10.1549 10.2 11.0706 9.82072 11.7457 9.14558C12.4208 8.47045 12.8001 7.55478 12.8001 6.6C12.8001 5.64522 12.4208 4.72955 11.7457 4.05442C11.0706 3.37928 10.1549 3 9.2001 3C8.24532 3 7.32964 3.37928 6.65451 4.05442C5.97938 4.72955 5.6001 5.64522 5.6001 6.6Z" stroke="white" stroke-width="1.5" stroke-dasharray="0,0,0,22.619552612304688"><animate attributeType="XML" attributeName="stroke-dasharray" repeatCount="1" dur="2.5s" values="0,0,0,22.619552612304688; 
          0,11.309776306152344,11.309776306152344,0; 
          22.619552612304688,0,0,0" keyTimes="0; 0.5; 1" fill="freeze"></animate></path>
<path d="M16.4 16.9499C16.4 19.1867 16.4 20.9999 9.2 20.9999C2 20.9999 2 19.1867 2 16.9499C2 14.7131 5.22355 12.8999 9.2 12.8999C13.1765 12.8999 16.4 14.7131 16.4 16.9499Z" stroke="white" stroke-width="1.5" stroke-dasharray="0,0,0,37.2877197265625"><animate attributeType="XML" attributeName="stroke-dasharray" repeatCount="1" dur="2.5s" values="0,0,0,37.2877197265625; 
          0,18.64385986328125,18.64385986328125,0; 
          37.2877197265625,0,0,0" keyTimes="0; 0.5; 1" fill="freeze"></animate></path>
<path d="M15.0059 8.71179C15.0059 9.46286 15.3042 10.1832 15.8353 10.7143C16.3664 11.2453 17.0868 11.5437 17.8379 11.5437C18.589 11.5437 19.3093 11.2453 19.8404 10.7143C20.3715 10.1832 20.6699 9.46286 20.6699 8.71179C20.6699 7.96072 20.3715 7.24042 19.8404 6.70933C19.3093 6.17824 18.589 5.87988 17.8379 5.87988C17.0868 5.87988 16.3664 6.17824 15.8353 6.70933C15.3042 7.24042 15.0059 7.96072 15.0059 8.71179Z" stroke="white" stroke-width="1.17998" stroke-dasharray="0,0,0,17.793832778930664"><animate attributeType="XML" attributeName="stroke-dasharray" repeatCount="1" dur="2.5s" values="0,0,0,17.793832778930664; 
          0,8.896916389465332,8.896916389465332,0; 
          17.793832778930664,0,0,0" keyTimes="0; 0.5; 1" fill="freeze"></animate></path>
<path d="M17.8398 20.04C23.5038 20.04 23.5038 18.6136 23.5038 16.8541C23.5038 15.0946 20.968 13.6682 17.8398 13.6682" stroke="white" stroke-width="1.17998" stroke-linecap="round" stroke-dasharray="0,0,0,14.666337013244629"><animate attributeType="XML" attributeName="stroke-dasharray" repeatCount="1" dur="2.5s" values="0,0,0,14.666337013244629; 
          0,7.3331685066223145,7.3331685066223145,0; 
          14.666337013244629,0,0,0" keyTimes="0; 0.5; 1" fill="freeze"></animate></path>
</g>
<defs>
<clipPath id="clip0_2271_4432">
<rect width="24.2222" height="24" fill="white" transform="translate(0.666504)" stroke-dasharray="0,0,0,96.44439697265625"><animate attributeType="XML" attributeName="stroke-dasharray" repeatCount="1" dur="2.5s" values="0,0,0,96.44439697265625; 
          0,48.222198486328125,48.222198486328125,0; 
          96.44439697265625,0,0,0" keyTimes="0; 0.5; 1" fill="freeze"></animate></rect>
</clipPath>
</defs>
</svg>