<svg width="25" height="24" viewBox="0 0 25 24" fill="none" xmlns="http://www.w3.org/2000/svg">
<path d="M2.46143 14.0512C2.46143 10.1836 2.46143 8.24971 3.66293 7.04812C4.86452 5.84662 6.7983 5.84662 10.6661 5.84662L14.7684 5.84662C18.636 5.84662 20.57 5.84662 21.7714 7.04812C22.4413 7.71806 22.7378 8.61553 22.8689 9.94893M22.973 14.0512C22.973 17.9189 22.973 19.8529 21.7715 21.0544C20.57 22.2559 18.636 22.2559 14.7684 22.2559L10.6661 22.2559C6.79839 22.2559 4.86452 22.2559 3.66293 21.0544C2.99308 20.3844 2.69664 19.487 2.56549 18.1536" stroke="white" stroke-width="1.5" stroke-linecap="round"/>
<path d="M16.8194 5.84651C16.8194 3.91264 16.8194 2.9457 16.2186 2.34495C15.6178 1.7442 14.6509 1.7442 12.7171 1.7442C10.7832 1.7442 9.81625 1.7442 9.2155 2.34495C8.61475 2.9457 8.61475 3.91264 8.61475 5.84651" stroke="white" stroke-width="1.5"/>
<path d="M17.8451 8.9233C17.8451 9.48974 17.3859 9.94892 16.8195 9.94892C16.253 9.94892 15.7939 9.48974 15.7939 8.9233C15.7939 8.35686 16.253 7.89777 16.8195 7.89777C17.3859 7.89777 17.8451 8.35695 17.8451 8.9233Z" fill="white"/>
<path d="M9.64051 8.9233C9.64051 9.48974 9.18142 9.94892 8.61498 9.94892C8.04854 9.94892 7.58936 9.48974 7.58936 8.9233C7.58936 8.35686 8.04854 7.89777 8.61498 7.89777C9.18142 7.89777 9.64051 8.35695 9.64051 8.9233Z" fill="white"/>
</svg>
