<?xml version="1.0" standalone="no"?>
<svg id="Icon2" width="25" height="24" viewBox="0 0 25 24" fill="none" xmlns="http://www.w3.org/2000/svg" style="max-width: 100%; max-height: 100%;">
<g clip-path="url(#clip0_2271_4405)">
<rect width="24.2222" height="24" fill="#465045" stroke-dasharray="0,0,0,96.44439697265625"><animate attributeType="XML" attributeName="stroke-dasharray" repeatCount="1" dur="2.5s" values="0,0,0,96.44439697265625; 
          0,48.222198486328125,48.222198486328125,0; 
          96.44439697265625,0,0,0" keyTimes="0; 0.5; 1" fill="freeze"></animate></rect>
<g clip-path="url(#clip1_2271_4405)">
<path d="M1.74414 14.0513C1.74414 10.1836 1.74414 8.24977 2.94564 7.04818C4.14723 5.84668 6.08102 5.84668 9.94877 5.84668L14.0511 5.84668C17.9187 5.84668 19.8527 5.84668 21.0541 7.04818C21.724 7.71812 22.0205 8.61559 22.1516 9.94899M22.2557 14.0513C22.2557 17.919 22.2557 19.8529 21.0542 21.0544C19.8527 22.2559 17.9187 22.2559 14.0511 22.2559L9.94877 22.2559C6.08111 22.2559 4.14723 22.2559 2.94564 21.0544C2.2758 20.3845 1.97936 19.487 1.8482 18.1536" stroke="white" stroke-width="1.5" stroke-linecap="round" stroke-dasharray="0,0,0,58.17329788208008"><animate attributeType="XML" attributeName="stroke-dasharray" repeatCount="1" dur="2.5s" values="0,0,0,58.17329788208008; 
          0,29.08664894104004,29.08664894104004,0; 
          58.17329788208008,0,0,0" keyTimes="0; 0.5; 1" fill="freeze"></animate></path>
<path d="M16.1021 5.84645C16.1021 3.91258 16.1021 2.94564 15.5013 2.34489C14.9005 1.74414 13.9336 1.74414 11.9998 1.74414C10.0659 1.74414 9.09896 1.74414 8.49821 2.34489C7.89746 2.94564 7.89746 3.91258 7.89746 5.84645" stroke="white" stroke-width="1.5" stroke-dasharray="0,0,0,14.544751167297363"><animate attributeType="XML" attributeName="stroke-dasharray" repeatCount="1" dur="2.5s" values="0,0,0,14.544751167297363; 
          0,7.272375583648682,7.272375583648682,0; 
          14.544751167297363,0,0,0" keyTimes="0; 0.5; 1" fill="freeze"></animate></path>
<path d="M17.1278 8.92324C17.1278 9.48967 16.6686 9.94886 16.1022 9.94886C15.5358 9.94886 15.0767 9.48967 15.0767 8.92324C15.0767 8.3568 15.5358 7.89771 16.1022 7.89771C16.6686 7.89771 17.1278 8.35689 17.1278 8.92324Z" fill="white" stroke-dasharray="0,0,0,6.44472074508667"><animate attributeType="XML" attributeName="stroke-dasharray" repeatCount="1" dur="2.5s" values="0,0,0,6.44472074508667; 
          0,3.222360372543335,3.222360372543335,0; 
          6.44472074508667,0,0,0" keyTimes="0; 0.5; 1" fill="freeze"></animate></path>
<path d="M8.92323 8.92324C8.92323 9.48967 8.46413 9.94886 7.8977 9.94886C7.33126 9.94886 6.87207 9.48967 6.87207 8.92324C6.87207 8.3568 7.33126 7.89771 7.8977 7.89771C8.46413 7.89771 8.92323 8.35689 8.92323 8.92324Z" fill="white" stroke-dasharray="0,0,0,6.444831848144531"><animate attributeType="XML" attributeName="stroke-dasharray" repeatCount="1" dur="2.5s" values="0,0,0,6.444831848144531; 
          0,3.2224159240722656,3.2224159240722656,0; 
          6.444831848144531,0,0,0" keyTimes="0; 0.5; 1" fill="freeze"></animate></path>
</g>
</g>
<defs>
<clipPath id="clip0_2271_4405">
<rect width="24.2222" height="24" fill="white" stroke-dasharray="0,0,0,96.44439697265625"><animate attributeType="XML" attributeName="stroke-dasharray" repeatCount="1" dur="2.5s" values="0,0,0,96.44439697265625; 
          0,48.222198486328125,48.222198486328125,0; 
          96.44439697265625,0,0,0" keyTimes="0; 0.5; 1" fill="freeze"></animate></rect>
</clipPath>
<clipPath id="clip1_2271_4405">
<rect width="24" height="24" fill="white" stroke-dasharray="0,0,0,96"><animate attributeType="XML" attributeName="stroke-dasharray" repeatCount="1" dur="2.5s" values="0,0,0,96; 
          0,48,48,0; 
          96,0,0,0" keyTimes="0; 0.5; 1" fill="freeze"></animate></rect>
</clipPath>
</defs>
</svg>