<svg width="24" height="24" viewBox="0 0 24 24" fill="none" xmlns="http://www.w3.org/2000/svg">
<g clip-path="url(#clip0_2149_709)">
<path d="M5.84668 9.94888C5.84331 11.5278 7.5505 12.5184 8.91962 11.7318C9.55778 11.3652 9.95059 10.6848 9.949 9.94888C9.95237 8.36985 8.24518 7.37938 6.87606 8.16594C6.2379 8.53251 5.84509 9.21294 5.84668 9.94888Z" stroke="white" stroke-width="1.5"/>
<path d="M14.0518 14.0512C14.0484 12.4722 15.7556 11.4817 17.1247 12.2682C17.7629 12.6349 18.1557 13.3152 18.1541 14.0512C18.1575 15.6302 16.4503 16.6207 15.0811 15.8341C14.443 15.4675 14.0502 14.7871 14.0518 14.0512Z" stroke="white" stroke-width="1.5"/>
<path d="M7.89746 14.0511L7.89746 19.1791" stroke="white" stroke-width="1.5" stroke-linecap="round"/>
<path d="M16.103 9.94898V4.82104" stroke="white" stroke-width="1.5" stroke-linecap="round"/>
<path d="M7.89746 4.82104V5.84667" stroke="white" stroke-width="1.5" stroke-linecap="round"/>
<path d="M16.103 19.1791V18.1534" stroke="white" stroke-width="1.5" stroke-linecap="round"/>
<path d="M22.2562 12C22.2562 16.8346 22.2562 19.252 20.7542 20.7539C19.2524 22.2558 16.835 22.2558 12.0004 22.2558C7.16572 22.2558 4.74847 22.2558 3.2465 20.7539C1.74463 19.2521 1.74463 16.8346 1.74463 12C1.74463 7.16536 1.74463 4.74811 3.2465 3.24614C4.74847 1.74426 7.16572 1.74426 12.0004 1.74426C16.835 1.74426 19.2523 1.74426 20.7542 3.24614C21.7529 4.24486 22.0876 5.6482 22.1998 7.89773" stroke="white" stroke-width="1.5" stroke-linecap="round"/>
</g>
<defs>
<clipPath id="clip0_2149_709">
<rect width="24" height="24" fill="white"/>
</clipPath>
</defs>
</svg>
