<svg width="25" height="24" viewBox="0 0 25 24" fill="none" xmlns="http://www.w3.org/2000/svg">
<path d="M9.64111 16.1023C10.5133 16.7487 11.574 17.1279 12.7179 17.1279C13.8618 17.1279 14.9225 16.7487 15.7947 16.1023" stroke="white" stroke-width="1.5" stroke-linecap="round"/>
<path d="M22.973 12.2091L22.973 13.7691C22.973 17.7697 22.973 19.7701 21.7715 21.0129C20.57 22.2558 18.636 22.2558 14.7684 22.2558L10.6661 22.2558C6.7983 22.2558 4.86452 22.2558 3.66293 21.0129C2.46143 19.7701 2.46143 17.7697 2.46143 13.7691V12.2091C2.46143 9.86211 2.46143 8.68864 2.99383 7.71589C3.52633 6.74305 4.49918 6.1393 6.44477 4.9318L8.49593 3.65876C10.5526 2.38236 11.581 1.7442 12.7172 1.7442C13.8535 1.7442 14.8818 2.38236 16.9385 3.65876L18.9896 4.9318C20.9353 6.1393 21.9081 6.74305 22.4405 7.71589" stroke="white" stroke-width="1.5" stroke-linecap="round"/>
</svg>
