<svg width="24" height="24" viewBox="0 0 24 24" fill="none" xmlns="http://www.w3.org/2000/svg">
<path d="M15.0771 12.0008H5.84619M5.84619 12.0008L7.89744 14.0522M5.84619 12.0008L7.89744 9.94958" stroke="white" stroke-width="1.5" stroke-linecap="round" stroke-linejoin="round"/>
<path d="M11.9998 22.2398C10.4065 22.1918 9.45611 22.014 8.79836 21.3563C8.0103 20.5681 7.91139 19.3601 7.89893 17.1292M16.1025 22.2558C18.3333 22.2434 19.5415 22.1445 20.3295 21.3563C21.2308 20.4551 21.2308 19.0046 21.2308 16.1036V7.89829C21.2308 4.99729 21.2308 3.54679 20.3295 2.64548C19.4283 1.74426 17.9778 1.74426 15.0768 1.74426H14.0512C11.1501 1.74426 9.69958 1.74426 8.79836 2.64548C8.0103 3.43364 7.91139 4.64179 7.89893 6.87258" stroke="white" stroke-width="1.5" stroke-linecap="round"/>
<path d="M2.76904 9.43666V14.565C2.76904 16.9825 2.76904 18.1912 3.52007 18.9423C4.27111 19.6933 5.47992 19.6933 7.89736 19.6933M3.52007 5.05938C4.27111 4.30835 5.47992 4.30835 7.89736 4.30835" stroke="white" stroke-width="1.5" stroke-linecap="round"/>
</svg>
