<?xml version="1.0" standalone="no"?>
<svg id="Icon9" width="25" height="24" viewBox="0 0 25 24" fill="none" xmlns="http://www.w3.org/2000/svg" style="max-width: 100%; max-height: 100%;">
<g clip-path="url(#clip0_2271_4501)">
<rect width="24.2222" height="24" transform="translate(0.777832)" fill="#465045" stroke-dasharray="0,0,0,96.44439697265625"><animate attributeType="XML" attributeName="stroke-dasharray" repeatCount="1" dur="2.5s" values="0,0,0,96.44439697265625; 
          0,48.222198486328125,48.222198486328125,0; 
          96.44439697265625,0,0,0" keyTimes="0; 0.5; 1" fill="freeze"></animate></rect>
<path d="M15.0771 12.001H5.84619M5.84619 12.001L7.89744 14.0523M5.84619 12.001L7.89744 9.94971" stroke="white" stroke-width="1.5" stroke-linecap="round" stroke-linejoin="round" stroke-dasharray="0,0,0,15.032784461975098"><animate attributeType="XML" attributeName="stroke-dasharray" repeatCount="1" dur="2.5s" values="0,0,0,15.032784461975098; 
          0,7.516392230987549,7.516392230987549,0; 
          15.032784461975098,0,0,0" keyTimes="0; 0.5; 1" fill="freeze"></animate></path>
<path d="M11.9998 22.2397C10.4065 22.1917 9.45611 22.0139 8.79836 21.3562C8.0103 20.568 7.91139 19.36 7.89893 17.1291M16.1025 22.2557C18.3333 22.2432 19.5415 22.1443 20.3295 21.3562C21.2308 20.455 21.2308 19.0045 21.2308 16.1035V7.89817C21.2308 4.99717 21.2308 3.54667 20.3295 2.64536C19.4283 1.74414 17.9778 1.74414 15.0768 1.74414H14.0512C11.1501 1.74414 9.69958 1.74414 8.79836 2.64536C8.0103 3.43352 7.91139 4.64167 7.89893 6.87245" stroke="white" stroke-width="1.5" stroke-linecap="round" stroke-dasharray="0,0,0,47.740238189697266"><animate attributeType="XML" attributeName="stroke-dasharray" repeatCount="1" dur="2.5s" values="0,0,0,47.740238189697266; 
          0,23.870119094848633,23.870119094848633,0; 
          47.740238189697266,0,0,0" keyTimes="0; 0.5; 1" fill="freeze"></animate></path>
<path d="M2.76904 9.43666V14.565C2.76904 16.9825 2.76904 18.1912 3.52007 18.9423C4.27111 19.6933 5.47992 19.6933 7.89736 19.6933M3.52007 5.05938C4.27111 4.30835 5.47992 4.30835 7.89736 4.30835" stroke="white" stroke-width="1.5" stroke-linecap="round" stroke-dasharray="0,0,0,18.765132904052734"><animate attributeType="XML" attributeName="stroke-dasharray" repeatCount="1" dur="2.5s" values="0,0,0,18.765132904052734; 
          0,9.382566452026367,9.382566452026367,0; 
          18.765132904052734,0,0,0" keyTimes="0; 0.5; 1" fill="freeze"></animate></path>
</g>
<defs>
<clipPath id="clip0_2271_4501">
<rect width="24.2222" height="24" fill="white" transform="translate(0.777832)" stroke-dasharray="0,0,0,96.44439697265625"><animate attributeType="XML" attributeName="stroke-dasharray" repeatCount="1" dur="2.5s" values="0,0,0,96.44439697265625; 
          0,48.222198486328125,48.222198486328125,0; 
          96.44439697265625,0,0,0" keyTimes="0; 0.5; 1" fill="freeze"></animate></rect>
</clipPath>
</defs>
</svg>