<?xml version="1.0" standalone="no"?>
<svg id="Icon6" width="25" height="24" viewBox="0 0 25 24" fill="none" xmlns="http://www.w3.org/2000/svg" style="max-width: 100%; max-height: 100%;">
<g clip-path="url(#clip0_2271_4465)">
<rect width="24.2222" height="24" transform="translate(0.111328)" fill="#465045" stroke-dasharray="0,0,0,96.44439697265625"><animate attributeType="XML" attributeName="stroke-dasharray" repeatCount="1" dur="2.5s" values="0,0,0,96.44439697265625; 
          0,48.222198486328125,48.222198486328125,0; 
          96.44439697265625,0,0,0" keyTimes="0; 0.5; 1" fill="freeze"></animate></rect>
<g clip-path="url(#clip1_2271_4465)">
<path d="M9.94922 16.1023C9.94585 17.6813 11.653 18.6718 13.0222 17.8852C13.6603 17.5187 14.0531 16.8382 14.0515 16.1023C14.0549 14.5234 12.3477 13.5328 10.9786 14.3194C10.3404 14.686 9.94763 15.3664 9.94922 16.1023Z" stroke="white" stroke-width="1.5" stroke-dasharray="0,0,0,12.912220001220703"><animate attributeType="XML" attributeName="stroke-dasharray" repeatCount="1" dur="2.5s" values="0,0,0,12.912220001220703; 
          0,6.456110000610352,6.456110000610352,0; 
          12.912220001220703,0,0,0" keyTimes="0; 0.5; 1" fill="freeze"></animate></path>
<path d="M5.84717 9.94877V7.89761C5.84717 7.5482 5.87623 7.20555 5.9322 6.87199M18.1541 9.94877V7.89761C18.1541 4.49908 15.3991 1.74414 12.0006 1.74414C10.1628 1.74414 8.51304 2.54983 7.38551 3.82736" stroke="white" stroke-width="1.5" stroke-linecap="round" stroke-dasharray="0,0,0,20.019006729125977"><animate attributeType="XML" attributeName="stroke-dasharray" repeatCount="1" dur="2.5s" values="0,0,0,20.019006729125977; 
          0,10.009503364562988,10.009503364562988,0; 
          20.019006729125977,0,0,0" keyTimes="0; 0.5; 1" fill="freeze"></animate></path>
<path d="M10.9743 22.2559H7.89761C4.9968 22.2559 3.54639 22.2559 2.64527 21.3548C1.74414 20.4536 1.74414 19.0032 1.74414 16.1024C1.74414 13.2017 1.74414 11.7513 2.64527 10.8502C3.54639 9.94897 4.9968 9.94897 7.89761 9.94897H16.1022C19.003 9.94897 20.4534 9.94897 21.3546 10.8501C22.2557 11.7513 22.2557 13.2017 22.2557 16.1024C22.2557 19.0032 22.2557 20.4536 21.3546 21.3548C20.4534 22.2559 19.003 22.2559 16.1022 22.2559H15.0767" stroke="white" stroke-width="1.5" stroke-linecap="round" stroke-dasharray="0,0,0,55.94110870361328"><animate attributeType="XML" attributeName="stroke-dasharray" repeatCount="1" dur="2.5s" values="0,0,0,55.94110870361328; 
          0,27.97055435180664,27.97055435180664,0; 
          55.94110870361328,0,0,0" keyTimes="0; 0.5; 1" fill="freeze"></animate></path>
</g>
</g>
<defs>
<clipPath id="clip0_2271_4465">
<rect width="24.2222" height="24" fill="white" transform="translate(0.111328)" stroke-dasharray="0,0,0,96.44439697265625"><animate attributeType="XML" attributeName="stroke-dasharray" repeatCount="1" dur="2.5s" values="0,0,0,96.44439697265625; 
          0,48.222198486328125,48.222198486328125,0; 
          96.44439697265625,0,0,0" keyTimes="0; 0.5; 1" fill="freeze"></animate></rect>
</clipPath>
<clipPath id="clip1_2271_4465">
<rect width="24" height="24" fill="white" stroke-dasharray="0,0,0,96"><animate attributeType="XML" attributeName="stroke-dasharray" repeatCount="1" dur="2.5s" values="0,0,0,96; 
          0,48,48,0; 
          96,0,0,0" keyTimes="0; 0.5; 1" fill="freeze"></animate></rect>
</clipPath>
</defs>
</svg>