<svg width="25" height="24" viewBox="0 0 25 24" fill="none" xmlns="http://www.w3.org/2000/svg">
<path d="M10.6665 16.1023C10.6631 17.6813 12.3703 18.6718 13.7394 17.8852C14.3776 17.5187 14.7704 16.8382 14.7688 16.1023C14.7722 14.5234 13.065 13.5328 11.6959 14.3194C11.0577 14.686 10.6649 15.3664 10.6665 16.1023Z" stroke="white" stroke-width="1.5"/>
<path d="M6.56445 9.94889V7.89773C6.56445 7.54833 6.59352 7.20567 6.64948 6.87211M18.8714 9.94889V7.89773C18.8714 4.4992 16.1164 1.74426 12.7179 1.74426C10.88 1.74426 9.23033 2.54995 8.1028 3.82748" stroke="white" stroke-width="1.5" stroke-linecap="round"/>
<path d="M11.6916 22.2558H8.61489C5.71408 22.2558 4.26368 22.2558 3.36255 21.3547C2.46143 20.4534 2.46143 19.003 2.46143 16.1023C2.46143 13.2016 2.46143 11.7512 3.36255 10.8501C4.26368 9.94885 5.71408 9.94885 8.61489 9.94885H16.8195C19.7203 9.94885 21.1706 9.94885 22.0719 10.85C22.973 11.7512 22.973 13.2016 22.973 16.1023C22.973 19.003 22.973 20.4534 22.0719 21.3547C21.1706 22.2558 19.7202 22.2558 16.8195 22.2558H15.794" stroke="white" stroke-width="1.5" stroke-linecap="round"/>
</svg>
