<svg width="25" height="24" viewBox="0 0 25 24" fill="none" xmlns="http://www.w3.org/2000/svg">
<path d="M7.58936 18.1536L7.58936 8.92334" stroke="white" stroke-width="1.5" stroke-linecap="round"/>
<path d="M12.7173 18.1535L12.7173 5.84656" stroke="white" stroke-width="1.5" stroke-linecap="round"/>
<path d="M17.8447 18.1536V13.0256" stroke="white" stroke-width="1.5" stroke-linecap="round"/>
<path d="M22.9725 12C22.9725 16.8346 22.9725 19.252 21.4705 20.7539C19.9688 22.2558 17.5513 22.2558 12.7167 22.2558C7.88203 22.2558 5.46478 22.2558 3.96281 20.7539C2.46094 19.2521 2.46094 16.8346 2.46094 12C2.46094 7.16536 2.46094 4.74811 3.96281 3.24614C5.46478 1.74426 7.88203 1.74426 12.7167 1.74426C17.5513 1.74426 19.9687 1.74426 21.4705 3.24614C22.4693 4.24486 22.8039 5.6482 22.9161 7.89773" stroke="white" stroke-width="1.5" stroke-linecap="round"/>
</svg>
