<svg width="25" height="24" viewBox="0 0 25 24" fill="none" xmlns="http://www.w3.org/2000/svg">
<path d="M10.666 8.92323C10.6626 10.5023 12.3698 11.4927 13.739 10.7062C14.3771 10.3396 14.7699 9.65917 14.7683 8.92323C14.7717 7.3443 13.0645 6.35373 11.6954 7.1403C11.0572 7.50695 10.6644 8.1873 10.666 8.92323Z" stroke="white" stroke-width="1.5"/>
<path d="M16.8194 15.0768C16.8194 16.2095 16.8194 17.1279 12.7171 17.1279C8.61475 17.1279 8.61475 16.2095 8.61475 15.0768C8.61475 13.944 10.4514 13.0255 12.7171 13.0255C14.9827 13.0255 16.8194 13.9439 16.8194 15.0768Z" stroke="white" stroke-width="1.5"/>
<path d="M3.48682 10.3762C3.48682 7.09683 3.48682 5.45714 3.874 4.90551C4.26119 4.35389 5.80291 3.82608 8.88644 2.77064L9.47388 2.56954C11.0812 2.01933 11.8849 1.74426 12.7171 1.74426C13.5492 1.74426 14.3529 2.01933 15.9603 2.56954L16.5477 2.77064C19.6312 3.82608 21.1729 4.35389 21.5601 4.90551C21.9473 5.45714 21.9473 7.09683 21.9473 10.3762V11.9912C21.9473 14.5602 21.0891 16.5418 19.8962 18.0552M3.68463 14.0512C4.564 18.4596 8.18032 20.7307 10.5618 21.771C11.3017 22.0942 11.6717 22.2558 12.7171 22.2558C13.7625 22.2558 14.1324 22.0942 14.8722 21.771C15.4652 21.512 16.1347 21.1768 16.8194 20.7511" stroke="white" stroke-width="1.5" stroke-linecap="round"/>
</svg>
