<?xml version="1.0" standalone="no"?>
<svg id="SettingsIcon" width="24" height="24" viewBox="0 0 24 24" fill="none" xmlns="http://www.w3.org/2000/svg" style="max-width: 100%; max-height: 100%;">
<g clip-path="url(#clip0_2306_7534)">
<rect width="24" height="24" fill="#465045" stroke-dasharray="0,0,0,96"><animate attributeType="XML" attributeName="stroke-dasharray" repeatCount="1" dur="2.5s" values="0,0,0,96; 
          0,48,48,0; 
          96,0,0,0" keyTimes="0; 0.5; 1" fill="freeze"></animate></rect>
<path d="M7.7365 20.4076C9.81709 21.6398 10.8575 22.2558 11.9998 22.2558C13.142 22.2558 14.1824 21.6398 16.2631 20.4076L16.9668 19.9908C19.0473 18.7588 20.0877 18.1426 20.6589 17.128C21.23 16.1132 21.23 14.8811 21.23 12.4168M21.04 7.89773C20.9558 7.51579 20.8342 7.18373 20.6589 6.87211C20.0877 5.85736 19.0473 5.24133 16.9668 4.00917L16.2631 3.59245C14.1824 2.36029 13.142 1.74426 11.9998 1.74426C10.8574 1.74426 9.81709 2.36029 7.7365 3.59245L7.03281 4.00917C4.95222 5.24133 3.91188 5.85736 3.34075 6.87211C2.76953 7.88686 2.76953 9.11901 2.76953 11.5833V12.4168C2.76953 14.8811 2.76953 16.1132 3.34075 17.128C3.57288 17.5403 3.88244 17.8869 4.30788 18.2358" stroke="white" stroke-width="1.5" stroke-linecap="round" stroke-dasharray="0,0,0,53.21793746948242"><animate attributeType="XML" attributeName="stroke-dasharray" repeatCount="1" dur="2.5s" values="0,0,0,53.21793746948242; 
          0,26.60896873474121,26.60896873474121,0; 
          53.21793746948242,0,0,0" keyTimes="0; 0.5; 1" fill="freeze"></animate></path>
<path d="M8.92383 11.9999C8.92383 14.3684 11.4878 15.8488 13.539 14.6645C14.4909 14.1148 15.0774 13.0992 15.0774 11.9999C15.0774 9.63144 12.5134 8.15113 10.4623 9.33538C9.51033 9.88503 8.92383 10.9007 8.92383 11.9999Z" stroke="white" stroke-width="1.5" stroke-dasharray="0,0,0,19.342254638671875"><animate attributeType="XML" attributeName="stroke-dasharray" repeatCount="1" dur="2.5s" values="0,0,0,19.342254638671875; 
          0,9.671127319335938,9.671127319335938,0; 
          19.342254638671875,0,0,0" keyTimes="0; 0.5; 1" fill="freeze"></animate></path>
</g>
<defs>
<clipPath id="clip0_2306_7534">
<rect width="24" height="24" fill="white" stroke-dasharray="0,0,0,96"><animate attributeType="XML" attributeName="stroke-dasharray" repeatCount="1" dur="2.5s" values="0,0,0,96; 
          0,48,48,0; 
          96,0,0,0" keyTimes="0; 0.5; 1" fill="freeze"></animate></rect>
</clipPath>
</defs>
</svg>